<?xml version="1.0" encoding="UTF-8"?>
<!-- Created with Inkscape (http://www.inkscape.org/) -->
<svg version="1.1" viewBox="0 0 762.53 381.86" xmlns="http://www.w3.org/2000/svg">
 <defs>
  <clipPath id="clipPath2955">
   <path transform="translate(-1284.4 -1344.8)" d="m1316.7 1405.9c0.311-3.869 0.978-12.458 0.741-13.68 0.094-1.712 0.487-4.839-0.317-3.943-2.411 2.687-3.927 5.452-4.72 8.503-0.926-0.113-1.854-0.23-2.776-0.344-14.661-1.814-34.188 1.432-45.009 5.664-0.674-14.184 12.959-20.492 16.939-25.165 3.571-4.193 4.81-23.043 25.091-26.96 2.064-0.398 6.534 0.019 10.525-0.504 3.179-0.417 5.226-1.62 8.613-2.274 5.821-1.124 14.305 9.145 15.962 17.161 0.943 4.564-0.331 6.941-6.306 10.866-1.454 0.954-2.884 12.365-2.998 14.73-0.694 14.511-8.463 26.736-12.909 26.734-2.26-1e-3 -3.661-3.162-2.836-10.788"/>
  </clipPath>
  <clipPath id="clipPath2957">
   <path transform="translate(-1280.3 -1348)" d="m1316.7 1405.9c0.311-3.869 0.978-12.458 0.741-13.68 0.094-1.712 0.487-4.839-0.317-3.943-2.411 2.687-3.927 5.452-4.72 8.503-0.926-0.113-1.854-0.23-2.776-0.344-14.661-1.814-34.188 1.432-45.009 5.664-0.674-14.184 12.959-20.492 16.939-25.165 3.571-4.193 4.81-23.043 25.091-26.96 2.064-0.398 6.534 0.019 10.525-0.504 3.179-0.417 5.226-1.62 8.613-2.274 5.821-1.124 14.305 9.145 15.962 17.161 0.943 4.564-0.331 6.941-6.306 10.866-1.454 0.954-2.884 12.365-2.998 14.73-0.694 14.511-8.463 26.736-12.909 26.734-2.26-1e-3 -3.661-3.162-2.836-10.788"/>
  </clipPath>
  <clipPath id="clipPath2867-1">
   <path transform="translate(-1234.6 -1343)" d="m0 2063.6h1459.8v-2063.6h-1459.8z"/>
  </clipPath>
  <clipPath id="clipPath2869-1">
   <path transform="translate(-1305.2 -1411.9)" d="m0 2063.6h1459.8v-2063.6h-1459.8z"/>
  </clipPath>
  <clipPath id="clipPath2871-8">
   <path transform="translate(-1316.2 -1408.2)" d="m0 2063.6h1459.8v-2063.6h-1459.8z"/>
  </clipPath>
  <clipPath id="clipPath2873-1">
   <path transform="translate(-1355.9 -1396.7)" d="m0 2063.6h1459.8v-2063.6h-1459.8z"/>
  </clipPath>
  <clipPath id="clipPath2875-0">
   <path transform="translate(-1335.6 -1394.2)" d="m0 2063.6h1459.8v-2063.6h-1459.8z"/>
  </clipPath>
  <clipPath id="clipPath2877-8">
   <path transform="translate(-1332 -1395.7)" d="m0 2063.6h1459.8v-2063.6h-1459.8z"/>
  </clipPath>
  <clipPath id="clipPath2879-7">
   <path transform="translate(-1355.9 -1396.9)" d="m0 2063.6h1459.8v-2063.6h-1459.8z"/>
  </clipPath>
  <clipPath id="clipPath2881-1">
   <path transform="translate(-1368.4 -1398.7)" d="m0 2063.6h1459.8v-2063.6h-1459.8z"/>
  </clipPath>
  <clipPath id="clipPath2883-4">
   <path transform="translate(-1303.6 -1413.7)" d="m0 2063.6h1459.8v-2063.6h-1459.8z"/>
  </clipPath>
  <clipPath id="clipPath2885-7">
   <path transform="translate(-1235.1 -1337.6)" d="m0 2063.6h1459.8v-2063.6h-1459.8z"/>
  </clipPath>
  <clipPath id="clipPath2887-5">
   <path transform="translate(-1359.2 -1391.6)" d="m0 2063.6h1459.8v-2063.6h-1459.8z"/>
  </clipPath>
  <clipPath id="clipPath2889-2">
   <path transform="translate(-1342.5 -1365.3)" d="m0 2063.6h1459.8v-2063.6h-1459.8z"/>
  </clipPath>
  <clipPath id="clipPath2891-6">
   <path transform="translate(-1332.8 -1336.2)" d="m0 2063.6h1459.8v-2063.6h-1459.8z"/>
  </clipPath>
  <clipPath id="clipPath2893-4">
   <path transform="translate(-1253.9 -1368.2)" d="m0 2063.6h1459.8v-2063.6h-1459.8z"/>
  </clipPath>
  <clipPath id="clipPath2895-7">
   <path transform="translate(-1310.1 -1426.2)" d="m0 2063.6h1459.8v-2063.6h-1459.8z"/>
  </clipPath>
  <clipPath id="clipPath2897-3">
   <path transform="translate(-1313.7 -1427.5)" d="m0 2063.6h1459.8v-2063.6h-1459.8z"/>
  </clipPath>
  <clipPath id="clipPath2899-8">
   <path transform="translate(-1239.8 -1395.4)" d="m0 2063.6h1459.8v-2063.6h-1459.8z"/>
  </clipPath>
  <clipPath id="clipPath2901-1">
   <path transform="translate(-1315.7 -1398)" d="m0 2063.6h1459.8v-2063.6h-1459.8z"/>
  </clipPath>
  <clipPath id="clipPath2903-0">
   <path transform="translate(-1354.8 -1390.2)" d="m0 2063.6h1459.8v-2063.6h-1459.8z"/>
  </clipPath>
  <clipPath id="clipPath2905-5">
   <path transform="translate(-1264.6 -1402.8)" d="m0 2063.6h1459.8v-2063.6h-1459.8z"/>
  </clipPath>
  <clipPath id="clipPath2907-1">
   <path transform="translate(-1312.2 -1426.8)" d="m0 2063.6h1459.8v-2063.6h-1459.8z"/>
  </clipPath>
  <clipPath id="clipPath2909-1">
   <path transform="translate(-1294.2 -1414.6)" d="m0 2063.6h1459.8v-2063.6h-1459.8z"/>
  </clipPath>
  <clipPath id="clipPath2911-5">
   <path transform="translate(-1286.5 -1415)" d="m0 2063.6h1459.8v-2063.6h-1459.8z"/>
  </clipPath>
  <clipPath id="clipPath2913-6">
   <path transform="translate(-1277.7 -1423.3)" d="m0 2063.6h1459.8v-2063.6h-1459.8z"/>
  </clipPath>
  <clipPath id="clipPath2915-5">
   <path transform="translate(-1277.4 -1421.8)" d="m0 2063.6h1459.8v-2063.6h-1459.8z"/>
  </clipPath>
  <clipPath id="clipPath2917-7">
   <path transform="translate(-1255 -1364.3)" d="m0 2063.6h1459.8v-2063.6h-1459.8z"/>
  </clipPath>
  <clipPath id="clipPath2919-6">
   <path transform="translate(-1235.7 -1338.2)" d="m0 2063.6h1459.8v-2063.6h-1459.8z"/>
  </clipPath>
  <clipPath id="clipPath2921-6">
   <path transform="translate(-1226.9 -1339.3)" d="m0 2063.6h1459.8v-2063.6h-1459.8z"/>
  </clipPath>
  <clipPath id="clipPath2923-7">
   <path transform="translate(-1221.9 -1336.2)" d="m0 2063.6h1459.8v-2063.6h-1459.8z"/>
  </clipPath>
  <clipPath id="clipPath2925-4">
   <path transform="translate(-1351.7 -1407)" d="m0 2063.6h1459.8v-2063.6h-1459.8z"/>
  </clipPath>
  <clipPath id="clipPath2927-0">
   <path transform="translate(-1348 -1412.4)" d="m0 2063.6h1459.8v-2063.6h-1459.8z"/>
  </clipPath>
  <clipPath id="clipPath2929-1">
   <path transform="translate(-1384 -1404.5)" d="m0 2063.6h1459.8v-2063.6h-1459.8z"/>
  </clipPath>
  <clipPath id="clipPath2931-8">
   <path transform="translate(-1392.7 -1397)" d="m0 2063.6h1459.8v-2063.6h-1459.8z"/>
  </clipPath>
  <clipPath id="clipPath2933-4">
   <path transform="translate(-1337.1 -1393.6)" d="m0 2063.6h1459.8v-2063.6h-1459.8z"/>
  </clipPath>
  <clipPath id="clipPath2935-7">
   <path transform="translate(-1291.3 -1412)" d="m0 2063.6h1459.8v-2063.6h-1459.8z"/>
  </clipPath>
  <clipPath id="clipPath2937-8">
   <path transform="translate(-1250.6 -1395.5)" d="m0 2063.6h1459.8v-2063.6h-1459.8z"/>
  </clipPath>
  <clipPath id="clipPath2939-5">
   <path transform="translate(-1208.4 -1442.8)" d="m0 2063.6h1459.8v-2063.6h-1459.8z"/>
  </clipPath>
  <clipPath id="clipPath2941-8">
   <path transform="translate(-1148 -1454.2)" d="m0 2063.6h1459.8v-2063.6h-1459.8z"/>
  </clipPath>
  <clipPath id="clipPath2943-4">
   <path transform="translate(-1241.8 -1399.2)" d="m0 2063.6h1459.8v-2063.6h-1459.8z"/>
  </clipPath>
  <clipPath id="clipPath2945-0">
   <path transform="translate(-1207.9 -1442.1)" d="m0 2063.6h1459.8v-2063.6h-1459.8z"/>
  </clipPath>
  <clipPath id="clipPath2947-0">
   <path transform="translate(-1171.7 -1458.2)" d="m0 2063.6h1459.8v-2063.6h-1459.8z"/>
  </clipPath>
  <clipPath id="clipPath2949-5">
   <path transform="translate(-1158.2 -1459.7)" d="m0 2063.6h1459.8v-2063.6h-1459.8z"/>
  </clipPath>
  <clipPath id="clipPath2951-8">
   <path transform="translate(-1171.4 -1440.8)" d="m0 2063.6h1459.8v-2063.6h-1459.8z"/>
  </clipPath>
  <clipPath id="clipPath2953-1">
   <path transform="translate(-1285.8 -1336.2)" d="m1316.7 1405.9c0.311-3.869 0.978-12.458 0.741-13.68 0.094-1.712 0.487-4.839-0.317-3.943-2.411 2.687-3.927 5.452-4.72 8.503-0.926-0.113-1.854-0.23-2.776-0.344-14.661-1.814-34.188 1.432-45.009 5.664-0.674-14.184 12.959-20.492 16.939-25.165 3.571-4.193 4.81-23.043 25.091-26.96 2.064-0.398 6.534 0.019 10.525-0.504 3.179-0.417 5.226-1.62 8.613-2.274 5.821-1.124 14.305 9.145 15.962 17.161 0.943 4.564-0.331 6.941-6.306 10.866-1.454 0.954-2.884 12.365-2.998 14.73-0.694 14.511-8.463 26.736-12.909 26.734-2.26-1e-3 -3.661-3.162-2.836-10.788"/>
  </clipPath>
  <clipPath id="clipPath2959-4">
   <path transform="translate(-1263.4 -1403.9)" d="m1316.7 1405.9c0.311-3.869 0.978-12.458 0.741-13.68 0.094-1.712 0.487-4.839-0.317-3.943-2.411 2.687-3.927 5.452-4.72 8.503-0.926-0.113-1.854-0.23-2.776-0.344-14.661-1.814-34.188 1.432-45.009 5.664-0.674-14.184 12.959-20.492 16.939-25.165 3.571-4.193 4.81-23.043 25.091-26.96 2.064-0.398 6.534 0.019 10.525-0.504 3.179-0.417 5.226-1.62 8.613-2.274 5.821-1.124 14.305 9.145 15.962 17.161 0.943 4.564-0.331 6.941-6.306 10.866-1.454 0.954-2.884 12.365-2.998 14.73-0.694 14.511-8.463 26.736-12.909 26.734-2.26-1e-3 -3.661-3.162-2.836-10.788"/>
  </clipPath>
  <clipPath id="clipPath2961-7">
   <path transform="translate(-1337.4 -1360.8)" d="m1316.7 1405.9c0.311-3.869 0.978-12.458 0.741-13.68 0.094-1.712 0.487-4.839-0.317-3.943-2.411 2.687-3.927 5.452-4.72 8.503-0.926-0.113-1.854-0.23-2.776-0.344-14.661-1.814-34.188 1.432-45.009 5.664-0.674-14.184 12.959-20.492 16.939-25.165 3.571-4.193 4.81-23.043 25.091-26.96 2.064-0.398 6.534 0.019 10.525-0.504 3.179-0.417 5.226-1.62 8.613-2.274 5.821-1.124 14.305 9.145 15.962 17.161 0.943 4.564-0.331 6.941-6.306 10.866-1.454 0.954-2.884 12.365-2.998 14.73-0.694 14.511-8.463 26.736-12.909 26.734-2.26-1e-3 -3.661-3.162-2.836-10.788"/>
  </clipPath>
  <clipPath id="clipPath2963-5">
   <path transform="translate(-1330.2 -1376.9)" d="m1316.7 1405.9c0.311-3.869 0.978-12.458 0.741-13.68 0.094-1.712 0.487-4.839-0.317-3.943-2.411 2.687-3.927 5.452-4.72 8.503-0.926-0.113-1.854-0.23-2.776-0.344-14.661-1.814-34.188 1.432-45.009 5.664-0.674-14.184 12.959-20.492 16.939-25.165 3.571-4.193 4.81-23.043 25.091-26.96 2.064-0.398 6.534 0.019 10.525-0.504 3.179-0.417 5.226-1.62 8.613-2.274 5.821-1.124 14.305 9.145 15.962 17.161 0.943 4.564-0.331 6.941-6.306 10.866-1.454 0.954-2.884 12.365-2.998 14.73-0.694 14.511-8.463 26.736-12.909 26.734-2.26-1e-3 -3.661-3.162-2.836-10.788"/>
  </clipPath>
  <clipPath id="clipPath2965-5">
   <path transform="translate(-1308.5 -1382.7)" d="m1316.7 1405.9c0.311-3.869 0.978-12.458 0.741-13.68 0.094-1.712 0.487-4.839-0.317-3.943-2.411 2.687-3.927 5.452-4.72 8.503-0.926-0.113-1.854-0.23-2.776-0.344-14.661-1.814-34.188 1.432-45.009 5.664-0.674-14.184 12.959-20.492 16.939-25.165 3.571-4.193 4.81-23.043 25.091-26.96 2.064-0.398 6.534 0.019 10.525-0.504 3.179-0.417 5.226-1.62 8.613-2.274 5.821-1.124 14.305 9.145 15.962 17.161 0.943 4.564-0.331 6.941-6.306 10.866-1.454 0.954-2.884 12.365-2.998 14.73-0.694 14.511-8.463 26.736-12.909 26.734-2.26-1e-3 -3.661-3.162-2.836-10.788"/>
  </clipPath>
  <clipPath id="clipPath2967-0">
   <path transform="translate(-1326.8 -1349.4)" d="m1316.7 1405.9c0.311-3.869 0.978-12.458 0.741-13.68 0.094-1.712 0.487-4.839-0.317-3.943-2.411 2.687-3.927 5.452-4.72 8.503-0.926-0.113-1.854-0.23-2.776-0.344-14.661-1.814-34.188 1.432-45.009 5.664-0.674-14.184 12.959-20.492 16.939-25.165 3.571-4.193 4.81-23.043 25.091-26.96 2.064-0.398 6.534 0.019 10.525-0.504 3.179-0.417 5.226-1.62 8.613-2.274 5.821-1.124 14.305 9.145 15.962 17.161 0.943 4.564-0.331 6.941-6.306 10.866-1.454 0.954-2.884 12.365-2.998 14.73-0.694 14.511-8.463 26.736-12.909 26.734-2.26-1e-3 -3.661-3.162-2.836-10.788"/>
  </clipPath>
  <clipPath id="clipPath2969-7">
   <path transform="translate(-1328 -1346.6)" d="m1316.7 1405.9c0.311-3.869 0.978-12.458 0.741-13.68 0.094-1.712 0.487-4.839-0.317-3.943-2.411 2.687-3.927 5.452-4.72 8.503-0.926-0.113-1.854-0.23-2.776-0.344-14.661-1.814-34.188 1.432-45.009 5.664-0.674-14.184 12.959-20.492 16.939-25.165 3.571-4.193 4.81-23.043 25.091-26.96 2.064-0.398 6.534 0.019 10.525-0.504 3.179-0.417 5.226-1.62 8.613-2.274 5.821-1.124 14.305 9.145 15.962 17.161 0.943 4.564-0.331 6.941-6.306 10.866-1.454 0.954-2.884 12.365-2.998 14.73-0.694 14.511-8.463 26.736-12.909 26.734-2.26-1e-3 -3.661-3.162-2.836-10.788"/>
  </clipPath>
  <clipPath id="clipPath2975-7">
   <path transform="translate(-1328.5 -1400.4)" d="m1316.7 1405.9c0.311-3.869 0.978-12.458 0.741-13.68 0.094-1.712 0.487-4.839-0.317-3.943-2.411 2.687-3.927 5.452-4.72 8.503-0.926-0.113-1.854-0.23-2.776-0.344-14.661-1.814-34.188 1.432-45.009 5.664-0.674-14.184 12.959-20.492 16.939-25.165 3.571-4.193 4.81-23.043 25.091-26.96 2.064-0.398 6.534 0.019 10.525-0.504 3.179-0.417 5.226-1.62 8.613-2.274 5.821-1.124 14.305 9.145 15.962 17.161 0.943 4.564-0.331 6.941-6.306 10.866-1.454 0.954-2.884 12.365-2.998 14.73-0.694 14.511-8.463 26.736-12.909 26.734-2.26-1e-3 -3.661-3.162-2.836-10.788"/>
  </clipPath>
  <clipPath id="clipPath2977-3">
   <path transform="translate(-1287.3 -1400.4)" d="m1316.7 1405.9c0.311-3.869 0.978-12.458 0.741-13.68 0.094-1.712 0.487-4.839-0.317-3.943-2.411 2.687-3.927 5.452-4.72 8.503-0.926-0.113-1.854-0.23-2.776-0.344-14.661-1.814-34.188 1.432-45.009 5.664-0.674-14.184 12.959-20.492 16.939-25.165 3.571-4.193 4.81-23.043 25.091-26.96 2.064-0.398 6.534 0.019 10.525-0.504 3.179-0.417 5.226-1.62 8.613-2.274 5.821-1.124 14.305 9.145 15.962 17.161 0.943 4.564-0.331 6.941-6.306 10.866-1.454 0.954-2.884 12.365-2.998 14.73-0.694 14.511-8.463 26.736-12.909 26.734-2.26-1e-3 -3.661-3.162-2.836-10.788"/>
  </clipPath>
  <clipPath id="clipPath2979-9">
   <path transform="translate(-1322.9 -1359.9)" d="m1316.7 1405.9c0.311-3.869 0.978-12.458 0.741-13.68 0.094-1.712 0.487-4.839-0.317-3.943-2.411 2.687-3.927 5.452-4.72 8.503-0.926-0.113-1.854-0.23-2.776-0.344-14.661-1.814-34.188 1.432-45.009 5.664-0.674-14.184 12.959-20.492 16.939-25.165 3.571-4.193 4.81-23.043 25.091-26.96 2.064-0.398 6.534 0.019 10.525-0.504 3.179-0.417 5.226-1.62 8.613-2.274 5.821-1.124 14.305 9.145 15.962 17.161 0.943 4.564-0.331 6.941-6.306 10.866-1.454 0.954-2.884 12.365-2.998 14.73-0.694 14.511-8.463 26.736-12.909 26.734-2.26-1e-3 -3.661-3.162-2.836-10.788"/>
  </clipPath>
  <clipPath id="clipPath2981-9">
   <path transform="translate(-1321 -1356.2)" d="m1316.7 1405.9c0.311-3.869 0.978-12.458 0.741-13.68 0.094-1.712 0.487-4.839-0.317-3.943-2.411 2.687-3.927 5.452-4.72 8.503-0.926-0.113-1.854-0.23-2.776-0.344-14.661-1.814-34.188 1.432-45.009 5.664-0.674-14.184 12.959-20.492 16.939-25.165 3.571-4.193 4.81-23.043 25.091-26.96 2.064-0.398 6.534 0.019 10.525-0.504 3.179-0.417 5.226-1.62 8.613-2.274 5.821-1.124 14.305 9.145 15.962 17.161 0.943 4.564-0.331 6.941-6.306 10.866-1.454 0.954-2.884 12.365-2.998 14.73-0.694 14.511-8.463 26.736-12.909 26.734-2.26-1e-3 -3.661-3.162-2.836-10.788"/>
  </clipPath>
  <clipPath id="clipPath2989-5">
   <path transform="translate(-1318 -1348.6)" d="m1316.7 1405.9c0.311-3.869 0.978-12.458 0.741-13.68 0.094-1.712 0.487-4.839-0.317-3.943-2.411 2.687-3.927 5.452-4.72 8.503-0.926-0.113-1.854-0.23-2.776-0.344-14.661-1.814-34.188 1.432-45.009 5.664-0.674-14.184 12.959-20.492 16.939-25.165 3.571-4.193 4.81-23.043 25.091-26.96 2.064-0.398 6.534 0.019 10.525-0.504 3.179-0.417 5.226-1.62 8.613-2.274 5.821-1.124 14.305 9.145 15.962 17.161 0.943 4.564-0.331 6.941-6.306 10.866-1.454 0.954-2.884 12.365-2.998 14.73-0.694 14.511-8.463 26.736-12.909 26.734-2.26-1e-3 -3.661-3.162-2.836-10.788"/>
  </clipPath>
  <clipPath id="clipPath2995-8">
   <path transform="translate(-1304.3 -1369.9)" d="m1316.7 1405.9c0.311-3.869 0.978-12.458 0.741-13.68 0.094-1.712 0.487-4.839-0.317-3.943-2.411 2.687-3.927 5.452-4.72 8.503-0.926-0.113-1.854-0.23-2.776-0.344-14.661-1.814-34.188 1.432-45.009 5.664-0.674-14.184 12.959-20.492 16.939-25.165 3.571-4.193 4.81-23.043 25.091-26.96 2.064-0.398 6.534 0.019 10.525-0.504 3.179-0.417 5.226-1.62 8.613-2.274 5.821-1.124 14.305 9.145 15.962 17.161 0.943 4.564-0.331 6.941-6.306 10.866-1.454 0.954-2.884 12.365-2.998 14.73-0.694 14.511-8.463 26.736-12.909 26.734-2.26-1e-3 -3.661-3.162-2.836-10.788"/>
  </clipPath>
  <clipPath id="clipPath2997-0">
   <path transform="translate(-1330.3 -1370.7)" d="m1316.7 1405.9c0.311-3.869 0.978-12.458 0.741-13.68 0.094-1.712 0.487-4.839-0.317-3.943-2.411 2.687-3.927 5.452-4.72 8.503-0.926-0.113-1.854-0.23-2.776-0.344-14.661-1.814-34.188 1.432-45.009 5.664-0.674-14.184 12.959-20.492 16.939-25.165 3.571-4.193 4.81-23.043 25.091-26.96 2.064-0.398 6.534 0.019 10.525-0.504 3.179-0.417 5.226-1.62 8.613-2.274 5.821-1.124 14.305 9.145 15.962 17.161 0.943 4.564-0.331 6.941-6.306 10.866-1.454 0.954-2.884 12.365-2.998 14.73-0.694 14.511-8.463 26.736-12.909 26.734-2.26-1e-3 -3.661-3.162-2.836-10.788"/>
  </clipPath>
  <clipPath id="clipPath2999-0">
   <path transform="translate(-1308.1 -1370.9)" d="m1316.7 1405.9c0.311-3.869 0.978-12.458 0.741-13.68 0.094-1.712 0.487-4.839-0.317-3.943-2.411 2.687-3.927 5.452-4.72 8.503-0.926-0.113-1.854-0.23-2.776-0.344-14.661-1.814-34.188 1.432-45.009 5.664-0.674-14.184 12.959-20.492 16.939-25.165 3.571-4.193 4.81-23.043 25.091-26.96 2.064-0.398 6.534 0.019 10.525-0.504 3.179-0.417 5.226-1.62 8.613-2.274 5.821-1.124 14.305 9.145 15.962 17.161 0.943 4.564-0.331 6.941-6.306 10.866-1.454 0.954-2.884 12.365-2.998 14.73-0.694 14.511-8.463 26.736-12.909 26.734-2.26-1e-3 -3.661-3.162-2.836-10.788"/>
  </clipPath>
  <clipPath id="clipPath3001-6">
   <path transform="translate(-1327.4 -1368.2)" d="m1316.7 1405.9c0.311-3.869 0.978-12.458 0.741-13.68 0.094-1.712 0.487-4.839-0.317-3.943-2.411 2.687-3.927 5.452-4.72 8.503-0.926-0.113-1.854-0.23-2.776-0.344-14.661-1.814-34.188 1.432-45.009 5.664-0.674-14.184 12.959-20.492 16.939-25.165 3.571-4.193 4.81-23.043 25.091-26.96 2.064-0.398 6.534 0.019 10.525-0.504 3.179-0.417 5.226-1.62 8.613-2.274 5.821-1.124 14.305 9.145 15.962 17.161 0.943 4.564-0.331 6.941-6.306 10.866-1.454 0.954-2.884 12.365-2.998 14.73-0.694 14.511-8.463 26.736-12.909 26.734-2.26-1e-3 -3.661-3.162-2.836-10.788"/>
  </clipPath>
  <clipPath id="clipPath3003-3">
   <path transform="translate(-1321.2 -1363.5)" d="m1316.7 1405.9c0.311-3.869 0.978-12.458 0.741-13.68 0.094-1.712 0.487-4.839-0.317-3.943-2.411 2.687-3.927 5.452-4.72 8.503-0.926-0.113-1.854-0.23-2.776-0.344-14.661-1.814-34.188 1.432-45.009 5.664-0.674-14.184 12.959-20.492 16.939-25.165 3.571-4.193 4.81-23.043 25.091-26.96 2.064-0.398 6.534 0.019 10.525-0.504 3.179-0.417 5.226-1.62 8.613-2.274 5.821-1.124 14.305 9.145 15.962 17.161 0.943 4.564-0.331 6.941-6.306 10.866-1.454 0.954-2.884 12.365-2.998 14.73-0.694 14.511-8.463 26.736-12.909 26.734-2.26-1e-3 -3.661-3.162-2.836-10.788"/>
  </clipPath>
  <clipPath id="clipPath3005-6">
   <path transform="translate(-1325.6 -1360.2)" d="m1316.7 1405.9c0.311-3.869 0.978-12.458 0.741-13.68 0.094-1.712 0.487-4.839-0.317-3.943-2.411 2.687-3.927 5.452-4.72 8.503-0.926-0.113-1.854-0.23-2.776-0.344-14.661-1.814-34.188 1.432-45.009 5.664-0.674-14.184 12.959-20.492 16.939-25.165 3.571-4.193 4.81-23.043 25.091-26.96 2.064-0.398 6.534 0.019 10.525-0.504 3.179-0.417 5.226-1.62 8.613-2.274 5.821-1.124 14.305 9.145 15.962 17.161 0.943 4.564-0.331 6.941-6.306 10.866-1.454 0.954-2.884 12.365-2.998 14.73-0.694 14.511-8.463 26.736-12.909 26.734-2.26-1e-3 -3.661-3.162-2.836-10.788"/>
  </clipPath>
  <clipPath id="clipPath3007-9">
   <path transform="translate(-1323.3 -1360)" d="m1316.7 1405.9c0.311-3.869 0.978-12.458 0.741-13.68 0.094-1.712 0.487-4.839-0.317-3.943-2.411 2.687-3.927 5.452-4.72 8.503-0.926-0.113-1.854-0.23-2.776-0.344-14.661-1.814-34.188 1.432-45.009 5.664-0.674-14.184 12.959-20.492 16.939-25.165 3.571-4.193 4.81-23.043 25.091-26.96 2.064-0.398 6.534 0.019 10.525-0.504 3.179-0.417 5.226-1.62 8.613-2.274 5.821-1.124 14.305 9.145 15.962 17.161 0.943 4.564-0.331 6.941-6.306 10.866-1.454 0.954-2.884 12.365-2.998 14.73-0.694 14.511-8.463 26.736-12.909 26.734-2.26-1e-3 -3.661-3.162-2.836-10.788"/>
  </clipPath>
  <clipPath id="clipPath3009-7">
   <path transform="translate(-1335.8 -1361.6)" d="m1316.7 1405.9c0.311-3.869 0.978-12.458 0.741-13.68 0.094-1.712 0.487-4.839-0.317-3.943-2.411 2.687-3.927 5.452-4.72 8.503-0.926-0.113-1.854-0.23-2.776-0.344-14.661-1.814-34.188 1.432-45.009 5.664-0.674-14.184 12.959-20.492 16.939-25.165 3.571-4.193 4.81-23.043 25.091-26.96 2.064-0.398 6.534 0.019 10.525-0.504 3.179-0.417 5.226-1.62 8.613-2.274 5.821-1.124 14.305 9.145 15.962 17.161 0.943 4.564-0.331 6.941-6.306 10.866-1.454 0.954-2.884 12.365-2.998 14.73-0.694 14.511-8.463 26.736-12.909 26.734-2.26-1e-3 -3.661-3.162-2.836-10.788"/>
  </clipPath>
  <clipPath id="clipPath3011-9">
   <path transform="translate(-1301.2 -1366)" d="m1316.7 1405.9c0.311-3.869 0.978-12.458 0.741-13.68 0.094-1.712 0.487-4.839-0.317-3.943-2.411 2.687-3.927 5.452-4.72 8.503-0.926-0.113-1.854-0.23-2.776-0.344-14.661-1.814-34.188 1.432-45.009 5.664-0.674-14.184 12.959-20.492 16.939-25.165 3.571-4.193 4.81-23.043 25.091-26.96 2.064-0.398 6.534 0.019 10.525-0.504 3.179-0.417 5.226-1.62 8.613-2.274 5.821-1.124 14.305 9.145 15.962 17.161 0.943 4.564-0.331 6.941-6.306 10.866-1.454 0.954-2.884 12.365-2.998 14.73-0.694 14.511-8.463 26.736-12.909 26.734-2.26-1e-3 -3.661-3.162-2.836-10.788"/>
  </clipPath>
  <clipPath id="clipPath3013-5">
   <path transform="translate(-1301 -1379.8)" d="m1316.7 1405.9c0.311-3.869 0.978-12.458 0.741-13.68 0.094-1.712 0.487-4.839-0.317-3.943-2.411 2.687-3.927 5.452-4.72 8.503-0.926-0.113-1.854-0.23-2.776-0.344-14.661-1.814-34.188 1.432-45.009 5.664-0.674-14.184 12.959-20.492 16.939-25.165 3.571-4.193 4.81-23.043 25.091-26.96 2.064-0.398 6.534 0.019 10.525-0.504 3.179-0.417 5.226-1.62 8.613-2.274 5.821-1.124 14.305 9.145 15.962 17.161 0.943 4.564-0.331 6.941-6.306 10.866-1.454 0.954-2.884 12.365-2.998 14.73-0.694 14.511-8.463 26.736-12.909 26.734-2.26-1e-3 -3.661-3.162-2.836-10.788"/>
  </clipPath>
  <clipPath id="clipPath3015-2">
   <path transform="translate(-1307.5 -1382)" d="m1316.7 1405.9c0.311-3.869 0.978-12.458 0.741-13.68 0.094-1.712 0.487-4.839-0.317-3.943-2.411 2.687-3.927 5.452-4.72 8.503-0.926-0.113-1.854-0.23-2.776-0.344-14.661-1.814-34.188 1.432-45.009 5.664-0.674-14.184 12.959-20.492 16.939-25.165 3.571-4.193 4.81-23.043 25.091-26.96 2.064-0.398 6.534 0.019 10.525-0.504 3.179-0.417 5.226-1.62 8.613-2.274 5.821-1.124 14.305 9.145 15.962 17.161 0.943 4.564-0.331 6.941-6.306 10.866-1.454 0.954-2.884 12.365-2.998 14.73-0.694 14.511-8.463 26.736-12.909 26.734-2.26-1e-3 -3.661-3.162-2.836-10.788"/>
  </clipPath>
  <clipPath id="clipPath3017-9">
   <path transform="translate(-1319.9 -1414.4)" d="m1316.7 1405.9c0.311-3.869 0.978-12.458 0.741-13.68 0.094-1.712 0.487-4.839-0.317-3.943-2.411 2.687-3.927 5.452-4.72 8.503-0.926-0.113-1.854-0.23-2.776-0.344-14.661-1.814-34.188 1.432-45.009 5.664-0.674-14.184 12.959-20.492 16.939-25.165 3.571-4.193 4.81-23.043 25.091-26.96 2.064-0.398 6.534 0.019 10.525-0.504 3.179-0.417 5.226-1.62 8.613-2.274 5.821-1.124 14.305 9.145 15.962 17.161 0.943 4.564-0.331 6.941-6.306 10.866-1.454 0.954-2.884 12.365-2.998 14.73-0.694 14.511-8.463 26.736-12.909 26.734-2.26-1e-3 -3.661-3.162-2.836-10.788"/>
  </clipPath>
  <clipPath id="clipPath3019-4">
   <path transform="translate(-1275 -1403.6)" d="m1316.7 1405.9c0.311-3.869 0.978-12.458 0.741-13.68 0.094-1.712 0.487-4.839-0.317-3.943-2.411 2.687-3.927 5.452-4.72 8.503-0.926-0.113-1.854-0.23-2.776-0.344-14.661-1.814-34.188 1.432-45.009 5.664-0.674-14.184 12.959-20.492 16.939-25.165 3.571-4.193 4.81-23.043 25.091-26.96 2.064-0.398 6.534 0.019 10.525-0.504 3.179-0.417 5.226-1.62 8.613-2.274 5.821-1.124 14.305 9.145 15.962 17.161 0.943 4.564-0.331 6.941-6.306 10.866-1.454 0.954-2.884 12.365-2.998 14.73-0.694 14.511-8.463 26.736-12.909 26.734-2.26-1e-3 -3.661-3.162-2.836-10.788"/>
  </clipPath>
  <clipPath id="clipPath3021-9">
   <path transform="translate(-1287.7 -1400.2)" d="m1316.7 1405.9c0.311-3.869 0.978-12.458 0.741-13.68 0.094-1.712 0.487-4.839-0.317-3.943-2.411 2.687-3.927 5.452-4.72 8.503-0.926-0.113-1.854-0.23-2.776-0.344-14.661-1.814-34.188 1.432-45.009 5.664-0.674-14.184 12.959-20.492 16.939-25.165 3.571-4.193 4.81-23.043 25.091-26.96 2.064-0.398 6.534 0.019 10.525-0.504 3.179-0.417 5.226-1.62 8.613-2.274 5.821-1.124 14.305 9.145 15.962 17.161 0.943 4.564-0.331 6.941-6.306 10.866-1.454 0.954-2.884 12.365-2.998 14.73-0.694 14.511-8.463 26.736-12.909 26.734-2.26-1e-3 -3.661-3.162-2.836-10.788"/>
  </clipPath>
  <clipPath id="clipPath3023-5">
   <path transform="translate(-1328.3 -1400.6)" d="m1316.7 1405.9c0.311-3.869 0.978-12.458 0.741-13.68 0.094-1.712 0.487-4.839-0.317-3.943-2.411 2.687-3.927 5.452-4.72 8.503-0.926-0.113-1.854-0.23-2.776-0.344-14.661-1.814-34.188 1.432-45.009 5.664-0.674-14.184 12.959-20.492 16.939-25.165 3.571-4.193 4.81-23.043 25.091-26.96 2.064-0.398 6.534 0.019 10.525-0.504 3.179-0.417 5.226-1.62 8.613-2.274 5.821-1.124 14.305 9.145 15.962 17.161 0.943 4.564-0.331 6.941-6.306 10.866-1.454 0.954-2.884 12.365-2.998 14.73-0.694 14.511-8.463 26.736-12.909 26.734-2.26-1e-3 -3.661-3.162-2.836-10.788"/>
  </clipPath>
  <clipPath id="clipPath3031-1">
   <path transform="translate(-1294.3 -1361.3)" d="m1316.7 1405.9c0.311-3.869 0.978-12.458 0.741-13.68 0.094-1.712 0.487-4.839-0.317-3.943-2.411 2.687-3.927 5.452-4.72 8.503-0.926-0.113-1.854-0.23-2.776-0.344-14.661-1.814-34.188 1.432-45.009 5.664-0.674-14.184 12.959-20.492 16.939-25.165 3.571-4.193 4.81-23.043 25.091-26.96 2.064-0.398 6.534 0.019 10.525-0.504 3.179-0.417 5.226-1.62 8.613-2.274 5.821-1.124 14.305 9.145 15.962 17.161 0.943 4.564-0.331 6.941-6.306 10.866-1.454 0.954-2.884 12.365-2.998 14.73-0.694 14.511-8.463 26.736-12.909 26.734-2.26-1e-3 -3.661-3.162-2.836-10.788"/>
  </clipPath>
  <clipPath id="clipPath3045-9">
   <path transform="translate(-1321.2 -1356.2)" d="m1316.7 1405.9c0.311-3.869 0.978-12.458 0.741-13.68 0.094-1.712 0.487-4.839-0.317-3.943-2.411 2.687-3.927 5.452-4.72 8.503-0.926-0.113-1.854-0.23-2.776-0.344-14.661-1.814-34.188 1.432-45.009 5.664-0.674-14.184 12.959-20.492 16.939-25.165 3.571-4.193 4.81-23.043 25.091-26.96 2.064-0.398 6.534 0.019 10.525-0.504 3.179-0.417 5.226-1.62 8.613-2.274 5.821-1.124 14.305 9.145 15.962 17.161 0.943 4.564-0.331 6.941-6.306 10.866-1.454 0.954-2.884 12.365-2.998 14.73-0.694 14.511-8.463 26.736-12.909 26.734-2.26-1e-3 -3.661-3.162-2.836-10.788"/>
  </clipPath>
  <clipPath id="clipPath3047-3">
   <path transform="translate(-1330.4 -1347.9)" d="m0 2063.6h1459.8v-2063.6h-1459.8z"/>
  </clipPath>
  <clipPath id="clipPath3049-8">
   <path transform="translate(-1300.1 -1352)" d="m0 2063.6h1459.8v-2063.6h-1459.8z"/>
  </clipPath>
  <clipPath id="clipPath3051-4">
   <path transform="translate(-1320.7 -1348.2)" d="m0 2063.6h1459.8v-2063.6h-1459.8z"/>
  </clipPath>
  <clipPath id="clipPath3053-9">
   <path transform="translate(-1328.5 -1347.6)" d="m0 2063.6h1459.8v-2063.6h-1459.8z"/>
  </clipPath>
  <clipPath id="clipPath3055-1">
   <path transform="translate(-1326.7 -1347.9)" d="m0 2063.6h1459.8v-2063.6h-1459.8z"/>
  </clipPath>
  <clipPath id="clipPath3057-4">
   <path transform="translate(-1324.9 -1347.9)" d="m0 2063.6h1459.8v-2063.6h-1459.8z"/>
  </clipPath>
  <clipPath id="clipPath3059-1">
   <path transform="translate(-1314.3 -1349.2)" d="m0 2063.6h1459.8v-2063.6h-1459.8z"/>
  </clipPath>
  <clipPath id="clipPath3061-6">
   <path transform="translate(-1312.7 -1349.6)" d="m0 2063.6h1459.8v-2063.6h-1459.8z"/>
  </clipPath>
  <clipPath id="clipPath3063-3">
   <path transform="translate(-1311.1 -1349.9)" d="m0 2063.6h1459.8v-2063.6h-1459.8z"/>
  </clipPath>
  <clipPath id="clipPath3065-2">
   <path transform="translate(-1307.5 -1350.3)" d="m0 2063.6h1459.8v-2063.6h-1459.8z"/>
  </clipPath>
  <clipPath id="clipPath3067-4">
   <path transform="translate(-1300.4 -1352.1)" d="m0 2063.6h1459.8v-2063.6h-1459.8z"/>
  </clipPath>
  <clipPath id="clipPath3069-7">
   <path transform="translate(-1358.8 -1391.6)" d="m0 2063.6h1459.8v-2063.6h-1459.8z"/>
  </clipPath>
  <clipPath id="clipPath3071-9">
   <path transform="translate(-1260.5 -1407.4)" d="m0 2063.6h1459.8v-2063.6h-1459.8z"/>
  </clipPath>
  <clipPath id="clipPath3073-7">
   <path transform="translate(-1291.3 -1412)" d="m0 2063.6h1459.8v-2063.6h-1459.8z"/>
  </clipPath>
  <clipPath id="clipPath3075-9">
   <path transform="translate(-1300 -1392.5)" d="m0 2063.6h1459.8v-2063.6h-1459.8z"/>
  </clipPath>
  <clipPath id="clipPath3077-6">
   <path transform="translate(-1287.3 -1400.4)" d="m0 2063.6h1459.8v-2063.6h-1459.8z"/>
  </clipPath>
  <clipPath id="clipPath3079-2">
   <path transform="translate(-1275 -1403.6)" d="m0 2063.6h1459.8v-2063.6h-1459.8z"/>
  </clipPath>
  <clipPath id="clipPath3081-9">
   <path transform="translate(-1287.7 -1400.2)" d="m0 2063.6h1459.8v-2063.6h-1459.8z"/>
  </clipPath>
 </defs>
 <g transform="translate(13.486 -25.255)">
  <path transform="matrix(-1.6273 -.27012 .27012 -1.6273 147.87 194.88)" d="m0 0 1.82-2.772-3.566-1.997s2.44-3.095 3.144-3.829c0.707-0.736-2.383-2.928-3.731-1.243-1.349 1.686-6.447 7.071-6.447 7.071l2.124 2.008-0.338 0.499 0.156 1.769 2.928-2.176-0.415 2.993z" clip-path="url(#clipPath2955)" fill="#763c00 icc-color(Japan-Color-2001-Coated, 0.29998779, 0.69999695, 1, 0.5)"/>
  <path transform="matrix(-1.6273 -.27012 .27012 -1.6273 155.45 190.81)" d="m0 0 4.126-3.183c0.186-0.135-0.145-0.567-0.331-0.433 0 0-2.284 1.512-3.393 2.309 0.265-1.177 0.695-3.087 0.695-3.087 0.195-0.875-0.089-0.967-0.691-0.389 0 0-1.961 1.884-2.861 2.747-2e-3 -0.507-0.11-1.287-0.115-1.313-0.037-0.19-0.569-0.117-0.568 0.11l-0.139 2.172c4e-3 0.917 0.023 0.947 0.7 0.296 0 0 1.531-1.47 2.562-2.459-0.276 1.228-0.631 2.804-0.631 2.804-0.221 0.983-0.259 1.076 0.646 0.426" clip-path="url(#clipPath2957)" fill="#763c00 icc-color(Japan-Color-2001-Coated, 0.29998779, 0.69999695, 1, 0.5)"/>
  <g fill="#eef3f7">
   <path transform="matrix(-2.8411 -.55133 .55144 -2.8404 405.96 354.37)" d="m0 0c8.203-1.584 17.311 11.151 19.992 20.691 0 0-2.215 13.572 2.909 40.109 0.624 3.228 6.326 3.863 10.264 4.342 3.936 0.48 13.679 0.211 18.73 1.962 5.049 1.754 5.003 1.514 7.467 4.635 0 0 0.307 4.156-0.248 8.355-0.816 6.201-8.558 15.169-18.282 17.047-8.839 1.707-19.059-1.664-22.991-4.116 0 0 8.032-8.496 8.275-9.162 0.884-2.425 0.73-5.844-0.078-10.029-0.23-1.194-1.317-2.97-1.984-3.212-0.666-0.244-5.964-0.709-6.295-1.14-0.331-0.433-11.693-15.599-11.693-15.599s-12.963-0.349-13.815-1.549c-4.909-6.915-5.087-20.044-2.508-32.248 2.27-10.732 6.111-17.797 6.714-18.534 0.601-0.736 2.109-1.275 3.543-1.552" clip-path="url(#clipPath2867-1)"/>
   <path transform="matrix(-2.8411 -.55133 .55144 -2.8404 243.27 119.61)" d="m0 0s0.199 3.598 1.876 7.572c1.677 3.975 2.208 5.443 2.208 5.443s-2.725-2.119-3.898-5.201c-1.173-3.079-1.742-6.027-1.742-6.027z" clip-path="url(#clipPath2869-1)"/>
   <path transform="matrix(-2.8411 -.55133 .55144 -2.8404 209.91 124.04)" d="m0 0s8.168 2.061 11.939 2.324c3.772 0.265 9.896 0.735 11.881-0.972 0 0 6.542 2.624 11.498-2.963 0 0 7.178-2.212 4.363-9.936 0 0-5.473 6.761-19.099 9.393-3.666 0.708-12.504 1.174-14.224 1.258-1.721 0.086-6.358 0.896-6.358 0.896" clip-path="url(#clipPath2871-8)"/>
  </g>
  <g>
   <path transform="matrix(-2.8411 -.55133 .55144 -2.8404 90.809 134.97)" d="m0 0s-1.098 1.354-3.527 3.083c1.386 0.042 2.779 0.046 4.173 0.015-0.033-0.918-0.226-1.946-0.646-3.098" clip-path="url(#clipPath2873-1)" fill="#d4d9dc"/>
   <path transform="matrix(-2.8411 -.55133 .55144 -2.8404 147.17 153.1)" d="m0 0s-7.343 3.071-9.654 3.518c-2.31 0.446-10.599-0.103-10.599-0.103s-0.213-4.092 9.208-10.954c0 0 3.148 3.029 5.32 4.429 2.171 1.398 5.725 3.11 5.725 3.11" clip-path="url(#clipPath2875-0)" fill="#eef3f7"/>
   <path transform="matrix(-2.8411 -.55133 .55144 -2.8404 158.21 150.96)" d="m0 0c1.97-0.77 3.605-1.453 3.605-1.453s-3.554-1.712-5.725-3.11c-2.172-1.4-5.32-4.429-5.32-4.429-1.293 0.942-2.399 1.83-3.354 2.663 3.347 2.673 6.974 4.755 10.794 6.329" clip-path="url(#clipPath2877-8)" fill="#d4d9dc"/>
   <path transform="matrix(-2.8411 -.55133 .55144 -2.8404 90.809 134.26)" d="m0 0s11.694-1.515 19.052-1.943c9.506-0.554 16.597-0.093 17.095 2.485 0.8 4.144-9.46 7.943-9.46 7.943s-1.668 4.208-14.1 6.609c-12.433 2.402-21.46 0.177-21.46 0.177s-5.586 2.318-13.282-1.155c0 0 4.775-0.095 6.247-1.456 0 0 2.54 1.164 6.764 0.348 2.631-0.507 4.734-3.311 4.734-3.311s3.445-0.997 4.659-4.123c1.215-3.129-0.249-5.574-0.249-5.574" clip-path="url(#clipPath2879-7)" fill="#00afec"/>
   <path transform="matrix(-2.8411 -.55133 .55144 -2.8404 56.29 122.25)" d="m0 0c10-1.508 18.182-2.417 23.683-0.936-6e-3 -0.106-0.015-0.214-0.035-0.323-0.499-2.579-7.589-3.039-17.096-2.485-7.358 0.428-19.052 1.943-19.052 1.943s0.681 1.14 0.728 2.856c3.935-0.095 7.883-0.467 11.772-1.055" clip-path="url(#clipPath2881-1)" fill="#009ace"/>
   <path transform="matrix(-2.8411 -.55133 .55144 -2.8404 248.68 115.39)" d="m0 0s1.147 7.218 3.565 9.479c2.422 2.26 5.56 4.382 5.868 4.694 1.519 1.538-4.548 16.008-19.657 18.925-16.988 3.281-33.904-2.843-40.786-10.227l0.462 0.035s10.938 5.699 22.294 3.506c13.686-2.642 19.447-14.638 18.476-25.68 0 0 3.899 4.785 5.334 4.507 1.435-0.277 4.444-5.239 4.444-5.239" clip-path="url(#clipPath2883-4)" fill="#00afec"/>
   <path transform="matrix(-2.8411 -.55133 .55144 -2.8404 401.36 369.34)" d="m0 0s-1.432-5.489-3.405-5.108c-1.135 0.218-1.152 2.703-1.152 2.703s-2.217-4.1-3.474-3.857c-1.254 0.242-0.625 7.993-0.625 7.993s-2.755-3.993-4.668-3.624c-1.912 0.369-0.398 7.889-5e-3 9.922 0.392 2.032 2.262 8.181 4.288 10.642 0 0 2.096-6.791 4.426-10.466 2.328-3.673 4.615-8.205 4.615-8.205" clip-path="url(#clipPath2885-7)" fill="#009ace"/>
   <path transform="matrix(-2.8411 -.55133 .55144 -2.8404 78.654 147.65)" d="m0 0c-0.2-1.034-2.016-1.016-3.451-0.738-1.434 0.276-4.385 1.261-5.243 1.095s-5.307-1.373-6.742-1.096-12.647 5.998-17.429 6.922c-4.781 0.922-10.6-0.104-10.6-0.104s0.202-4.089 5.802-8.477c5.6-4.389 13.875-8.631 16.67-9.998 5.254-2.569 9.588-7.703 8.631-12.661-6.172-31.956-32.023-54.201-61.886-48.433-3.108 0.599-6.663 1.78-6.663 1.78s-4.784-2.3-12.673-0.775c-19.324 3.731-28.846 16.021-33.685 24.73 0 0 2.606-1.494 4.861-0.938 2.258 0.557 9.206 4.009 12.279 8.79 3.072 4.779 5.669 11.8 5.669 11.8s-1.917 14.259 3.115 40.317c0.509 2.631 4.296 4.049 10.263 4.343 5.967 0.295 12.558 0.178 17.641 1.676 5.084 1.498 6.054 1.807 7.207 3.073 1.154 1.265 5.195 6.354 6.63 6.077 1.435-0.278 5.75-7.89 6.692-8.153 0.94-0.264 5.28-1.765 11.735-3.012 6.455-1.246 14.54-0.906 19.96-1.952 12.598-2.433 21.75-11.506 21.217-14.266" clip-path="url(#clipPath2887-5)" fill="#ffe560"/>
   <path transform="matrix(-2.8411 -.55133 .55144 -2.8404 111.63 231.51)" d="m0 0c-1.495-7.742-9.285-20.113-16.669-18.687-2.789 0.538-6.191 2.187-8.342 2.603-2.154 0.415-6.906-0.649-10.331 0.013-8.002 1.545-14.881 6.171-17.87 11.056-3.958 6.467-6.936 13.739-7.791 15.309-0.853 1.569-9.938 8.036-13.217 12.886-3.28 4.849-4.494 7.976-4.106 14.266 0 0 5.124-2.146 15.723-4.193s25.184-2.715 32.798-0.962c0 0 1.473-6.07 5.203-9.436 3.732-3.366 10.431-7.635 13.69-9.588 9.233-5.53 11.777-8.787 10.912-13.267" clip-path="url(#clipPath2889-2)" fill="#933000"/>
  </g>
  <path d="m334.88 206.71c12.002-12.002 17.177-20.235 19.531-38.356 0 0-15.768 3.2928-47.066 3.2928-31.295 0-73.183-6.115-93.892-15.294 0 0-7.5302 16.47-20 24.003-10.909 6.5847-8.2536 6.1262-19.459 10.374 28.904 0 41.656 84.871 88.128 84.871 9.636-11.335 26.74-37.889 28.049-39.475 3.2918-3.9989 32.709-17.414 44.709-29.416" fill="#681e00" stroke-width="1.0233"/>
  <g>
   <path transform="matrix(-2.8411 -.55133 .55144 -2.8404 123.05 319.58)" d="m0 0c-14.792-16.489-79.14 7.082-78.742 35.294l0.275-7.988s-4.292-12.811-11.184-17.681-11.016-2.462-12.145-1.251c0 0 10.453-20.991 33.525-25.447 7.769-1.501 13.353 0.773 13.353 0.773s17.726-6.775 34.03 1.237c16.302 8.012 20.888 15.063 20.888 15.063" clip-path="url(#clipPath2891-6)" fill="#ddc654"/>
   <path transform="matrix(-2.8411 -.55133 .55144 -2.8404 364.81 271.91)" d="m0 0c-6.764-6.853-32.595-0.829-31.14 15.109 0 0-1.002-9.892 1.496-20.293 2.496-10.403 4.877-19.047 10.257-20.086 7.313-1.413 16.058 8.83 19.786 20.484z" clip-path="url(#clipPath2893-4)" fill="#d4d9dc"/>
   <path transform="matrix(-2.8411 -.55133 .55144 -2.8404 237.09 76.275)" d="m0 0c-3.978-3.203-16.304-0.399-19.195 3.335 0 0 3.937-6.795 2.909-15.11 0 0 4.139 4.738 5.334 4.507 1.196-0.231 4.444-5.239 4.444-5.239s0.593 4.349 2.324 7.322 4.184 5.185 4.184 5.185" clip-path="url(#clipPath2895-7)" fill="#009ace"/>
  </g>
  <g fill="#0f141b">
   <path transform="matrix(-2.8411 -.55133 .55144 -2.8404 227.73 70.632)" d="m0 0c-0.073-0.379-0.437-0.541-1.039-0.812-1.905-0.851-6.744-2.774-8.751-13.168-0.044-0.225-0.741 0.517-0.704 0.694 2.143 10.352 6.922 12.492 8.738 13.305 0.234 0.104 0.48 0.217 0.569 0.285 0.855 4.861-5.994 15.665-19.478 18.269-11.359 2.194-21.353-0.133-27.737-2.471-7.474-2.738-11.802-6.154-12.145-7.308 0.215-0.37 1.287-1.51 2.25-2.533 2.199-2.338 4.938-5.249 5.614-7.023 1.597-4.198 0.366-11.987-1.789-13.443-0.285-0.196-2.545-0.534-4.235-0.813-1.121-0.186-2.156-0.742-2.949-1.748-2.81-3.562-10.294-13.092-12.049-15.744-0.804-1.219-1.549-0.794-0.712 0.467 1.688 2.552 8.413 11.694 11.399 15.739 1.154 1.566 1.982 2.227 4.535 2.453 1.505 0.135 3.024 0.241 3.188 0.35 2.541 1.719 2.503 9.865 1.558 12.347-0.616 1.621-8.478 8.747-8.209 10.142 0.761 3.938 19.979 15.113 41.544 10.948 14.043-2.712 21.388-14.83 20.402-19.936" clip-path="url(#clipPath2897-3)"/>
   <path transform="matrix(-2.8411 -.55133 .55144 -2.8404 420.07 202.58)" d="m0 0c-5.293 0.244-11.371 0.145-12.178-0.448-9.11-6.709-7.332-66.404 37.999-75.159 4.562-0.881 9.127-0.579 11.391-0.087 2.316 0.507 2.362 0.113 0.174-0.81-2.563-1.079-7.147-1.372-11.828-0.468-48.475 9.362-47.477 71.235-38.877 77.567 1.548 1.14 8.512 0.63 13.619-0.108 0.227-0.034-0.197-0.493-0.3-0.487" clip-path="url(#clipPath2899-8)"/>
   <path transform="matrix(-2.8411 -.55133 .55144 -2.8404 205.7 153.23)" d="m0 0c0.685-4.679 8.064-11.539 19.431-16.954 10.293-4.904 13.06-10.068 11.926-15.942-8.486-43.939-50.467-58.38-76.574-42.086-1.499 0.936-1.163 1.421 0.364 0.535 26.729-15.5 66.47 1.008 74.368 41.907 1.056 5.465-1.863 10.367-10.626 14.543-10.818 5.153-18.799 11.676-19.71 17.876-0.033 0.227 0.786 0.347 0.821 0.121" clip-path="url(#clipPath2901-1)"/>
   <path transform="matrix(-2.8411 -.55133 .55144 -2.8404 90.321 153.99)" d="m0 0c-2.041 0.395-3.781 0.982-4.498 0.993-0.562 0.01-5.027-0.98-6.939-0.611-1.834 0.354-12.55 5.574-17.564 6.542-4.532 0.875-10.5 0.034-16.208-0.673-15.314-1.895-35.947 1.731-46.412 6.235-1.253 0.538-1.369 1.509-0.127 0.974 11.896-5.112 35.406-7.423 46.546-6.044 5.773 0.713 11.742 1.451 16.403 0.552 5.113-0.988 16.07-6.409 17.555-6.695 1.714-0.332 5.507 1.012 6.828 1.071 0.805 0.034 2.2-0.502 4.679-0.981 1.103-0.212 2.615-0.265 2.852-0.045 0.787 0.76-4.061 10.471-21.793 13.895-3.091 0.598-5.418 0.731-8.113 0.887-3.224 0.185-6.876 0.396-12.629 1.506-3.464 0.67-9.097 2.356-9.645 2.623-0.963 0.466-5.808 7.678-6.566 7.825-1.554 0.3-6.229-5.94-7.199-6.573-2.911-1.902-9.112-3.467-15.774-3.736-14.707-0.593-17.425-1.379-18.174-5.255-5.241-27.143-4.343-47.143 2.466-54.868 1.143-1.292 0.69-1.654-0.5-0.402-7.349 7.744-8.978 28.205-3.687 55.602 0.906 4.692 5.081 5.472 19.397 6.05 6.527 0.264 12.149 1.557 15.164 3.086 2.017 1.022 6.148 7.967 8.579 7.498 0.996-0.192 5.882-8.108 6.654-8.482 0.434-0.212 5.967-1.883 9.442-2.554 5.698-1.101 17.696-1.275 20.841-1.883 17.868-3.451 23.371-13.602 22.985-15.598-0.18-0.935-2.588-1.32-4.563-0.939" clip-path="url(#clipPath2903-0)"/>
   <path transform="matrix(-2.8411 -.55133 .55144 -2.8404 353.49 167.98)" d="m0 0c-1.146-14.658 12.865-21.084 16.908-25.83 3.57-4.194 4.809-23.043 25.091-26.96 2.064-0.399 6.533 0.017 10.524-0.504 3.179-0.418 5.227-1.62 8.614-2.274 5.821-1.125 14.306 9.145 15.962 17.161 1.172 5.675-1.084 7.97-11.541 14.059-10.998 6.407-16.312 11.864-17.931 18.874-0.053 0.224 0.716 0.474 0.787 0.256 2.602-8.027 7.851-12.17 17.855-17.995 11.71-6.82 13.205-9.748 12.031-15.425-1.469-7.106-9.048-19.745-17.396-18.133-4.383 0.846-5.391 1.871-8.371 2.236-3.513 0.43-6.542-0.274-10.767 0.542-21.294 4.112-22.417 22.535-26.267 27.07-5.287 6.229-18.218 11.825-16.576 27.173 0.025 0.227 1.094-0.021 1.077-0.25" clip-path="url(#clipPath2905-5)"/>
   <path transform="matrix(-2.8411 -.55133 .55144 -2.8404 231.69 73.571)" d="m0 0c-3.208-2.094-6.404-10.541-6.639-15.356-0.011-0.229-0.804 0.43-0.785 0.635 0.396 4.376 2.845 11.837 5.547 14.506 0.233 0.231 2.07 0.34 1.877 0.215" clip-path="url(#clipPath2907-1)"/>
   <path transform="matrix(-2.8411 -.55133 .55144 -2.8404 275.99 118)" d="m0 0c-0.022-0.181-0.927-0.651-0.896-0.425 3.088 20.923-20.443 32.666-40.291 21.941-0.201-0.108-0.458 0.37-0.257 0.479 22.167 11.977 44.101-0.882 41.444-21.995" clip-path="url(#clipPath2909-1)"/>
   <path transform="matrix(-2.8411 -.55133 .55144 -2.8404 298.04 121.25)" d="m0 0c-0.234-1.047-1.016-0.896-0.812 0.157 2.019 10.456-0.785 15.775-3.978 16.391-2.812 0.543-7.979-5.425-7.002-15.889 0.105-1.141-0.685-1.215-0.825-0.077-1.469 11.809 4.049 18.122 8.093 17.341 4.82-0.931 6.832-7.644 4.524-17.923" clip-path="url(#clipPath2911-5)"/>
   <path transform="matrix(-2.8411 -.55133 .55144 -2.8404 327.62 102.5)" d="m0 0c-0.178 0.046-0.304 0.217-0.221 0.542 1.053 4.055 2.697 5.08 4.346 4.762 1.954-0.378 2.967-2.72 2.685-6.136-0.029-0.334-0.17-0.45-0.433-0.422-0.372 0.045-5.528 1.038-6.377 1.254" clip-path="url(#clipPath2913-6)"/>
   <path transform="matrix(-2.8411 -.55133 .55144 -2.8404 327.75 106.83)" d="m0 0c-0.127-2e-3 -0.319-0.071-0.344-0.26-0.404-3.312 0.787-5.716 2.819-6.108 1.574-0.304 3.514 1.267 4.32 4.777 0.032 0.136-0.075 0.262-0.22 0.322-0.245 0.099-6.322 1.273-6.575 1.269" clip-path="url(#clipPath2915-5)"/>
   <path transform="matrix(-2.8411 -.55133 .55144 -2.8404 359.73 282.6)" d="m0 0c-5.117-19.814-20.958-27.985-25.324-17.879-0.092 0.21 1.038 0.197 1.13-0.015 3.061-7.093 17.447-0.926 23.402 18.141 0.069 0.218 0.849-0.024 0.792-0.247" clip-path="url(#clipPath2917-7)"/>
   <path transform="matrix(-2.8411 -.55133 .55144 -2.8404 400.17 367.23)" d="m0 0c-0.675-3.494-2.584-6.658-4.011-6.383-0.913 0.177-1.251 1.859-1.383 2.971-0.03 0.259 0.769 0.966 0.775 0.739 0.035-1.355 0.474-2.49 0.83-2.559 0.569-0.109 2.285 1.812 2.976 5.389 0.042 0.225 0.856 0.068 0.813-0.157" clip-path="url(#clipPath2919-6)"/>
   <path transform="matrix(-2.8411 -.55133 .55144 -2.8404 425.77 368.91)" d="m0 0c-0.755-4.771-0.108-7.276 0.284-7.495 0.427 0.02 2.14 1.714 4.435 5.794 0.493 0.878 0.708 0.655 0.502-0.333-0.405-1.936-3.614-7.023-5.183-6.719-1.258 0.243-1.654 4.228-0.7 8.847 0.047 0.223 0.698 0.133 0.662-0.094" clip-path="url(#clipPath2921-6)"/>
   <path transform="matrix(-2.8411 -.55133 .55144 -2.8404 438.16 380.71)" d="m0 0c0.383-0.271 3.271 1.716 4.653 3.899 0.863 1.359 1.259 1.155 0.557-0.298-1.382-2.877-4.639-5.061-5.706-4.536-2.561 1.263-0.442 14.406 4.632 21.735 0.13 0.189 0.548-0.247 0.507-0.3-3.679-5.042-5.895-19.615-4.643-20.5" clip-path="url(#clipPath2923-7)"/>
   <path transform="matrix(-2.8411 -.55133 .55144 -2.8404 108.36 108.02)" d="m0 0c1.674-0.409 3.244-1.637 4.22-3.35 0.921-1.617 1.22-3.435 0.875-5.218-0.07-0.361-0.166-0.724-0.29-1.082-0.074-0.216-0.31-0.332-0.528-0.257-0.215 0.074-0.331 0.312-0.255 0.527 0.653 1.887 0.467 3.883-0.522 5.619-0.895 1.573-2.334 2.698-3.847 3.01-0.115 0.023-0.215 0.095-0.274 0.197-1.843 3.143-7.935 4.235-10.97 2.723-0.099-0.05-0.214-0.056-0.32-0.02-0.105 0.035-0.19 0.113-0.239 0.213-1.045 2.211-15.471 0.66-23.578-1.527-0.22-0.061-0.447 0.07-0.506 0.292-0.061 0.22 0.07 0.447 0.292 0.506 6.411 1.732 21.854 4.141 24.306 1.394 3.425 1.462 9.534 0.305 11.636-3.027" clip-path="url(#clipPath2925-4)"/>
   <path transform="matrix(-2.8411 -.55133 .55144 -2.8404 121.86 94.718)" d="m0 0c0.208-0.098-0.876-0.486-1.107-0.425-3.566 0.972-7.363 0.664-13.024-1.057-0.374-0.113-1.491 0.103-1.286 0.201 6.598 3.128 11.494 3.113 15.417 1.281" clip-path="url(#clipPath2927-0)"/>
   <path transform="matrix(-2.8411 -.55133 .55144 -2.8404 15.155 97.232)" d="m0 0c0.091-0.21-1.089 0.284-1.349 0.594-5.773 6.853-31.435 10.502-42.585 4.221-0.199-0.11-0.536 0.285-0.337 0.397 13.304 7.493 40.753 2.949 44.271-5.212" clip-path="url(#clipPath2929-1)"/>
   <path transform="matrix(-2.8411 -.55133 .55144 -2.8404 -13.469 113.81)" d="m0 0c-0.609-2.352-6.166-5.119-36.905-0.617-0.273 0.039-1.451 1.264-1.224 1.233 21.149-2.931 36.277-2.719 36.896-0.324 1.422 5.5-25.176 15.017-39.816 8.963-0.212-0.088-0.454 0.013-0.541 0.224s0.013 0.454 0.224 0.542c14.607 6.038 43.342-2.382 41.366-10.021" clip-path="url(#clipPath2931-8)"/>
   <path transform="matrix(-2.8411 -.55133 .55144 -2.8404 142.54 154.11)" d="m0 0c-3.847-0.583-10.309-4.853-12.329-7.226-0.148-0.173-0.779 0.363-0.63 0.536 2.039 2.397 7.132 6.548 11.235 7.482 0.219 0.049 1.95-0.76 1.724-0.792" clip-path="url(#clipPath2933-4)"/>
   <path transform="matrix(-2.8411 -.55133 .55144 -2.8404 282.73 127.16)" d="m0 0c2.181-0.784 4.52-2.278 5.574-3.888 0.552-0.845 0.15-1.109-0.464-0.308-0.793 1.036-3.112 2.414-5.518 3.279-0.215 0.077 0.192 0.995 0.408 0.917" clip-path="url(#clipPath2935-7)"/>
  </g>
  <g>
   <path transform="matrix(-2.8411 -.55133 .55144 -2.8404 389.31 196.31)" d="m0 0c0.395 1.828 0.873 2.808 0.168 3.439-0.704 0.632-10.754 8.939-16.171 14.283-5.415 5.346-9.685 10.634-12.657 14.515-2.972 3.879-11.71 13.42-13.55 15.014 0 0-0.352-6.957-9.755-5.14-2.95 0.569-6.171 1.439-6.171 1.439s1.373-3.159-10.499-0.866c-4.545 0.878-10.76 2.49-10.76 2.49s3.26-2.364 5.51-3.129c2.249-0.765 5.611-1.332 6.365-1.725 0.749-0.395 4.186-2.504 11.539-9.38 7.349-6.874 10.74-10.506 16.236-14.791 5.498-4.285 16.205-13.051 19.638-15.819 3.433-2.773 7.339-6.626 7.843-7.221 0.508-0.594 0.642-1.176 1.054-2.248 0.413-1.073 10.828 7.375 11.21 9.139" clip-path="url(#clipPath2937-8)" fill="#eef3f7"/>
   <path transform="matrix(-2.8411 -.55133 .55144 -2.8404 535.29 85.368)" d="m0 0s0-2.563-1.951-3.675c-1.95-1.11-5.364-2.103-8.635-1.472-3.265 0.63-5.07 1.559-5.07 1.559s-0.123-3.201-10.403-1.216c-10.281 1.986-11.126 2.727-11.126 2.727s-0.394-0.75-6.291 0.389c-16.014 3.092-29.627 9.264-28.732 13.897 0.523 2.705 7.885 7.394 20.937 4.39 0 0 8.017 0.848 13.366-1.424 0 0 4.598 0.269 14.001-1.547 15.141-2.924 23.904-13.628 23.904-13.628" clip-path="url(#clipPath2939-5)" fill="#00afec"/>
   <path transform="matrix(-2.8411 -.55133 .55144 -2.8404 713.11 86.241)" d="m0 0 0.515 1.389c0.565-6.06 13.442-3.587 13.442-3.587l0.884 1.151c-1.091-1.381 5.368-3.02 13.518-2.776 11.088 0.333 21.364-4.934 28.687-11.918-1.974-0.794-4.664-1.319-7.26-0.817-3.265 0.63-5.07 1.559-5.07 1.559s-0.123-3.201-10.403-1.216c-10.281 1.986-11.126 2.727-11.126 2.727s-0.394-0.75-6.29 0.388c-16.015 3.093-29.627 9.265-28.732 13.898 0.022 0.113 0.061 0.231 0.106 0.35 1.342-3.609 11.729-1.148 11.729-1.148" clip-path="url(#clipPath2941-8)" fill="#009ace"/>
   <path transform="matrix(-2.8411 -.55133 .55144 -2.8404 416.33 190.58)" d="m0 0c4.006-3.007 4.089-4.51 4.693-9.092 0.575-4.357-5.987-4.978-7.334-3.181-0.259 0.713-0.431 1.186-0.835 1.658-0.504 0.595-4.41 4.448-7.843 7.221-3.433 2.768-14.14 11.534-19.638 15.819-5.496 4.285-8.887 7.917-16.236 14.792-7.353 6.875-10.79 8.985-11.539 9.379-0.754 0.394-4.116 0.96-6.365 1.725-2.25 0.765-5.51 3.13-5.51 3.13s6.215-1.613 10.76-2.491c11.872-2.293 10.499 0.867 10.499 0.867s3.221-0.871 6.171-1.44c3.139-0.606 5.268-0.233 6.714 0.531 5.773-5.705 10.264-13.691 15.661-20.146 5.44-6.506 16.794-15.768 20.802-18.772" clip-path="url(#clipPath2943-4)" fill="#d4d9dc"/>
  </g>
  <g fill="#0f141b">
   <path transform="matrix(-2.8411 -.55133 .55144 -2.8404 536.37 87.379)" d="m0 0c-0.224-3.248-6.773-5.296-12.307-3.318-3.223 1.153-28.455 7.754-30.322 8.216-6.954 1.726-0.157 12.456 12.929 9.929 13.881-2.68 19.769-4.628 29.7-14.827m43.152-45.734c0.799 1.252 0.765 2.142 0.378 2.49 0 0-17.439 14.854-24.624 23.602-24.302 29.585-27.662 31.796-48.35 35.791-15.652 3.023-22.601-9.968-13.461-12.24 2.664-0.659 27.175-7.22 30.258-8.322 3.796-1.356 8.983-1.159 11.531 0.626 1.061 0.741 1.598 1.752 1.732 3.148 4.548-4.745 9.958-11.191 17.34-20.176 7.234-8.804 24.785-23.124 24.802-23.135 0.091-0.134-0.193-1.672-0.193-1.674-0.119-0.617 0.186-0.736 0.587-0.11" clip-path="url(#clipPath2945-0)"/>
   <path transform="matrix(-2.8411 -.55133 .55144 -2.8404 648.19 61.733)" d="m0 0c0.222-0.066-0.989-0.581-1.366-0.484-12.902 3.312-20.761-0.501-21.229-2.93-0.787-4.074 4.443-7.653 17.491-11.971 15.284-5.055 23.711-5.769 25.078-4.293 0.123 0.132 0.264 0.366 0.056 0.854-0.087 0.211 1.331-0.216 1.355-0.358 0.113-0.602-0.116-1.019-0.351-1.279-1.973-2.131-12.26-0.945-26.295 3.697-13.71 4.537-19.772 9.013-18.877 13.649 0.828 4.289 11.838 6.708 24.138 3.115" clip-path="url(#clipPath2947-0)"/>
   <path transform="matrix(-2.8411 -.55133 .55144 -2.8404 687.22 65.056)" d="m0 0c0.218-0.054-0.809-0.656-1.113-0.588-11.003 2.44-19.749-1.198-20.361-4.366-1.051-5.445 28.303-14.634 34.847-13.931 0.306 0.033 1.255-0.591 1.036-0.651-5.846-1.609-38.523 7.373-37.086 14.814 0.895 4.634 9.683 7.968 22.677 4.722" clip-path="url(#clipPath2949-5)"/>
   <path transform="matrix(-2.8411 -.55133 .55144 -2.8404 639.44 111.45)" d="m0 0c5.423-2.939 8.302-3.586 10.026-3.973 0.833-0.188 1.435-0.322 1.983-0.619 3.989-2.161 10.451-8.188 16.837-14.377 6.405-6.21 14.457-12.612 21.562-18.264 9.006-7.165 16.118-12.824 17.415-15.96 0.678-1.64 0.156-1.892-0.523-0.257-1.217 2.941-9.106 8.377-17.667 15.186-7.117 5.661-15.184 12.08-21.619 18.316-4.272 4.139-12.316 12-16.751 14.405-0.448 0.242-1.006 0.368-1.773 0.54-1.766 0.395-5.62 1.388-11.142 4.382-0.198 0.11 1.453 0.73 1.652 0.621" clip-path="url(#clipPath2951-8)"/>
  </g>
  <path transform="matrix(-2.8411 -.55133 .55144 -2.8404 256.69 345.3)" d="m0 0c-1.435 1.823-3.144 3.829-3.144 3.829l3.838 1.907-3.714 4.415 6.917 4.678-5.885 9.009 12.529 9.98s-6.874 12.24-14.563 19.616c-7.691 7.375-18.103 13.167-18.103 13.167s1.188-6.368 1.59-11.033c0.399-4.666 0.471-11.685 0.471-11.685s12.214-7.38 17.353-11.906l-9.655-7.622 7.795-7.146-8.127-4.198 4.811-5.267-2.554-1.989s5.408-5.383 6.984-7.177c1.577-1.791 4.569 7e-3 3.457 1.422" clip-path="url(#clipPath2953-1)" fill="#ffe200"/>
  <path transform="matrix(-2.8411 -.55133 .55144 -2.8404 357.61 165.34)" d="m0 0c12.267-5.886 26.196-19.638 33.536-33.879 0.106-0.21 0.019-0.398-0.09-0.497-0.334-0.307-8.699-7.093-12.606-9.564 1.038-1.538 5.927-7.713 6.493-8.822 0.085-0.17 0.059-0.405-0.145-0.537 0 0-6.622-3.727-7.32-4.179 0.508-0.61 3.847-4.277 3.847-4.277 0.233-0.279 0.242-0.46-0.144-0.642 0 0-3.019-1.204-3.777-1.558 0.55-0.64 2.451-3.166 2.451-3.166 0.5-0.578 0.106-0.978-0.455-0.326l-2.98 3.369c-0.25 0.29-0.171 0.497 0.141 0.646 0 0 2.712 1.263 3.462 1.611-0.572 0.684-3.481 4.171-3.481 4.171-0.24 0.287-0.232 0.406 0.091 0.611 0 0 6.024 3.893 6.618 4.277-1.105 1.874-5.678 8.64-5.727 8.713-0.152 0.226-0.146 0.424 0.131 0.588 3.365 1.999 10.547 8.429 11.899 9.649-6.638 12.708-19.815 26.216-31.055 31.905 0.503-3.148 2.276-14.807 2.102-21.524 1.667-1.021 13.207-8.146 17.374-11.989 0.089-0.083 0.139-0.2 0.133-0.321-1e-3 -0.021-3e-3 -0.042-6e-3 -0.06-0.019-0.099-0.075-0.188-0.154-0.251-0.072-0.055-6.874-5.306-9.51-7.241 1.147-1.187 5.403-5.272 7.681-6.848 0.242-0.167 0.302-0.526-0.043-0.708-0.252-0.13-5.958-2.926-8.045-3.957 0.835-0.871 2.886-3.03 4.546-4.889 0.142-0.16 0.143-0.469-0.078-0.619 0 0-1.576-1.066-2.157-1.457 1.211-1.243 5.057-5.53 6.013-6.679 0.632-0.756 0.214-1.189-0.48-0.355-1.084 1.301-6.716 6.744-6.77 6.8-0.221 0.226-0.136 0.497 0.065 0.633 0 0 1.906 1.095 2.472 1.478-2.064 2.288-4.857 4.971-4.884 4.996-0.264 0.274-0.204 0.51 0.123 0.662 1.215 0.571 6.26 2.979 7.931 3.849-2.795 2.131-7.887 6.699-8.081 6.902-0.152 0.16-0.204 0.434 0.059 0.622 1.969 1.422 8.206 5.927 9.79 7.149-4.644 4.086-16.918 11.397-17.044 11.475-0.128 0.078-0.204 0.217-0.199 0.366 0.255 7.632-2.291 23.284-2.316 23.43-0.101 0.6 0.085 0.685 0.589 0.443" clip-path="url(#clipPath2959-4)" fill="#0f141b"/>
  <g fill="#ffe200">
   <path transform="matrix(-2.8411 -.55133 .55144 -2.8404 123.59 247.01)" d="m0 0c-1.851-9.584-10.849-13.446-21.781-11.335-15.738 3.039-18.812 4.807-19.798 6.633-1.981 3.673-2.572 6.8-1.714 11.244 2.566 13.288 14.388 17.309 25.178 15.226 10.403-2.01 20.071-11.64 18.115-21.768" clip-path="url(#clipPath2961-7)"/>
   <path transform="matrix(-2.8411 -.55133 .55144 -2.8404 153 205.29)" d="m0 0c1.045 4.256 1.314 14.065-1.549 23.214 0 0-5.575 2.813-10.296 1.906 0 0 0.901-13.318 4.312-21.334 3.412-8.015 6.758-6.943 7.533-3.786" clip-path="url(#clipPath2963-5)"/>
   <path transform="matrix(-2.8411 -.55133 .55144 -2.8404 217.83 200.84)" d="m0 0c-5.052 8.354-10.673 12.139-21.129 17.72 0 0-1.535-6.235 0.275-12.702 0 0 3.036-4.39 12.381-9.087 9.342-4.697 10.226 1.166 8.473 4.069" clip-path="url(#clipPath2965-5)"/>
   <path transform="matrix(-2.8411 -.55133 .55144 -2.8404 147.28 285.32)" d="m0 0c-5.77-1.135-10.24-6.37-12.117-11.38-3.246-8.664-6.178-12.943-12.115-11.797-1.036 0.201-6.155 2.16-6.155 2.16s-2.084-0.837-6.268-0.029c-8.944 1.727-12.711 8.123-11.501 14.393 1.297 6.713 10.628 16.681 16.197 19.232 7.458 3.416 17.396 4.729 23.216 2.502 5.235-2.003 15.103-13.829 8.743-15.081" clip-path="url(#clipPath2967-0)"/>
   <path transform="matrix(-2.8411 -.55133 .55144 -2.8404 142.46 292.66)" d="m0 0c-1.112-6.6-4.777-11.476-9.48-10.567-1.315 0.254-2.68 0.889-3.713 1.645-1.032 0.759-3.912 8.631-0.259 12.141 3.655 3.51 13.877-0.697 13.452-3.219" clip-path="url(#clipPath2969-7)"/>
  </g>
  <g>
   <path transform="matrix(-2.8411 -.55133 .55144 -2.8404 170.79 139.62)" d="m0 0s-1.008 4.411-2.856 7.683c-1.848 3.269-4.952 6.783-5.729 6.933s-1.494-3.244-1.445-7.16c0.05-3.916 0.156-5.61 0.156-5.61s3.558 0.118 4.812-0.124c1.256-0.243 5.062-1.722 5.062-1.722" clip-path="url(#clipPath2975-7)" fill="#0f141b"/>
   <path transform="matrix(-2.8411 -.55133 .55144 -2.8404 287.63 162.16)" d="m0 0s-0.829-2.796-0.644-5.684c0.186-2.887 0.63-6.693 0.63-6.693s-4.092 3.209-7.209 6.972c-3.118 3.764-6.119 8.127-5.576 9.012 0.543 0.887 5.89-0.641 7.733-1.37 1.844-0.726 5.066-2.237 5.066-2.237" clip-path="url(#clipPath2977-3)" fill="#0f141b"/>
   <path transform="matrix(-2.8411 -.55133 .55144 -2.8404 164.25 257.44)" d="m0 0s-0.819-2.322-1.791-3.655c0 0-1.542 1.322-2.494 1.692-0.952 0.368-2.992 0.237-2.992 0.237l-0.298 1.824s1.265-0.028 1.99 0.359c0.727 0.387 2.49 0.853 2.975 0.789 0.483-0.062 2.61-1.246 2.61-1.246" clip-path="url(#clipPath2979-9)" fill="#b60007"/>
   <path transform="matrix(-2.8411 -.55133 .55144 -2.8404 167.61 269.13)" d="m0 0s-1.063 1.445-2.373 1.782c-1.311 0.336-2.992 0.237-2.992 0.237s0.733-3.316 2.496-3.822c1.763-0.504 2.869 1.803 2.869 1.803" clip-path="url(#clipPath2981-9)" fill="#e60013"/>
   <path transform="matrix(-2.8411 -.55133 .55144 -2.8404 172.02 292.54)" d="m0 0c0.104 0.536-4.586 1.108-4.648 0.786-0.062-0.323-0.099-1.098 1.299-1.369 1.414-0.273 3.276 0.206 3.349 0.583" clip-path="url(#clipPath2989-5)" fill="#fabf00 icc-color(Japan-Color-2001-Coated, 0, 0.29998779, 1, 0)"/>
   <path transform="matrix(-2.8411 -.55133 .55144 -2.8404 222.59 239.36)" d="m0 0c-0.459-2.376 1.095-4.675 3.472-5.134s4.676 1.095 5.135 3.472c0.458 2.375-1.095 4.677-3.473 5.137-2.377 0.459-4.676-1.1-5.134-3.475" clip-path="url(#clipPath2995-8)" fill="#0f141b"/>
   <path transform="matrix(-2.8411 -.55133 .55144 -2.8404 149.33 222.73)" d="m0 0c-1.701 0.328-3.152-1.169-3.491-2.922-0.574-2.975 0.804-5.115 2.583-5.459 1.758-0.34 3.425 1.037 3.824 3.105 0.493 2.55-1.176 4.94-2.916 5.276" clip-path="url(#clipPath2997-0)" fill="#0f141b"/>
   <path transform="matrix(-2.8411 -.55133 .55144 -2.8404 212.37 234.58)" d="m0 0c-0.196-1.016 0.47-2 1.486-2.197 1.017-0.197 2 0.469 2.197 1.486 0.195 1.015-0.469 2.003-1.485 2.199-1.016 0.197-2.002-0.473-2.198-1.488" clip-path="url(#clipPath2999-0)" fill="#fff"/>
   <path transform="matrix(-2.8411 -.55133 .55144 -2.8404 156.05 231.47)" d="m0 0c-0.174-0.901 0.263-1.882 1.106-2.045 0.632-0.122 1.592 0.474 1.787 1.487 0.176 0.913-0.244 2.022-1.078 2.183-0.799 0.154-1.597-0.498-1.815-1.625" clip-path="url(#clipPath3001-6)" fill="#fff"/>
  </g>
  <g fill="#0f141b">
   <path transform="matrix(-2.8411 -.55133 .55144 -2.8404 171.2 248.38)" d="m0 0c0.039 0.216-1.539 0.525-1.589 0.236-0.051-0.287 0.572-0.597 0.843-0.645 0.27-0.047 0.691 0.093 0.746 0.409" clip-path="url(#clipPath3003-3)"/>
   <path transform="matrix(-2.8411 -.55133 .55144 -2.8404 156.82 255.27)" d="m0 0c-0.689-0.465-1.616-0.659-2.418-0.533-1.163 0.181-2.184 0.998-2.921 1.102-0.804 0.118-3.121-1.3-4.903-0.956-0.771 0.149-1.682 0.667-2.077 1.34-0.577 0.979-0.17 1.15 0.515 0.314 0.211-0.255 0.911-0.686 1.719-0.842 1.574-0.304 3.664 1.112 4.809 0.971 0.955-0.117 1.735-0.889 3.015-1.117 0.505-0.088 1.245-0.083 1.947 0.237 0.794 0.36 1.04-0.025 0.314-0.516" clip-path="url(#clipPath3005-6)"/>
   <path transform="matrix(-2.8411 -.55133 .55144 -2.8404 163.34 257.04)" d="m0 0c-0.273-1.412-2.517-6.548-4.836-6.101-2.131 0.412-3.273 4.237-3.431 6.313-0.017 0.229 0.577 0.299 0.602 0.072 0.232-2.082 1.51-5.288 2.987-5.573 1.457-0.281 3.753 3.858 4.06 5.451 0.043 0.223 0.661 0.064 0.618-0.162" clip-path="url(#clipPath3007-9)"/>
  </g>
  <path transform="matrix(-2.8411 -.55133 .55144 -2.8404 128.53 245.5)" d="m0 0c-0.981 0.479-2.836-1.053-3.777-3.358-0.875-2.139-0.904-4.763-0.025-5.208 1.03-0.521 2.415 1.055 3.67 4.082 0.846 2.04 0.785 4.168 0.132 4.484" clip-path="url(#clipPath3009-7)" fill="#e60013"/>
  <path transform="matrix(-2.8411 -.55133 .55144 -2.8404 229.17 252.22)" d="m0 0c2.902-0.561 4.389-3.275 3.825-6.197-0.536-2.777-3.173-4.781-5.547-4.323-1.967 0.38-4.116 3.086-3.526 6.138 0.646 3.347 2.486 4.915 5.248 4.382" clip-path="url(#clipPath3011-9)" fill="#e60013"/>
  <g fill="#0f141b">
   <path transform="matrix(-2.8411 -.55133 .55144 -2.8404 237.43 213.19)" d="m0 0c-3.789-2.606-6.381-6.619-7.374-11.762-0.817-4.231-0.318-8.06 1.632-11.287 0.609-1.01 0.883-0.915 0.369 0.146-1.44 2.975-1.721 6.881-0.938 10.936 0.907 4.696 3.309 8.62 6.785 11.422 0.869 0.698 0.786 1.411-0.474 0.545" clip-path="url(#clipPath3013-5)"/>
   <path transform="matrix(-2.8411 -.55133 .55144 -2.8404 220.18 203.19)" d="m0 0c15.735 3.573 31.829-7.211 29.14-21.138-1.015-5.254-4.968-9.699-9.839-11.063-1.119-0.316-0.971-0.758 0.169-0.536 5.842 1.148 9.961 5.781 11.033 11.336 2.994 15.505-16.101 26.741-30.787 22.074-1.848-0.587-1.294-1.032 0.284-0.673" clip-path="url(#clipPath3015-2)"/>
   <path transform="matrix(-2.8411 -.55133 .55144 -2.8404 202.95 104.5)" d="m0 0c-0.959-0.092-2.421-16.08 2.683-32.315 0.023-0.072-0.921-0.065-0.999 0.149-5.485 15.359-3.996 33.144-1.863 33.26 2.01 0.109 14.75-15.438 11.217-37.949-0.037-0.227-0.946 0.043-0.907 0.268 2.945 16.853-7.345 36.853-10.131 36.587" clip-path="url(#clipPath3017-9)"/>
   <path transform="matrix(-2.8411 -.55133 .55144 -2.8404 324.63 159.81)" d="m0 0c-0.785-1.215 11.44-17.599 25.586-24.643 0.16-0.08-0.427-0.714-0.661-0.603-15.153 7.142-28.044 23.878-25.721 26.046 1.764 1.649 25.324-5.249 34.294-20.983 0.565-0.994-0.118-1.407-0.71-0.427-8.326 13.811-31.793 22.147-32.788 20.61" clip-path="url(#clipPath3019-4)"/>
   <path transform="matrix(-2.8411 -.55133 .55144 -2.8404 286.46 162.39)" d="m0 0c-0.396-2.05-0.6-9.973 0.566-13.338 0.076-0.215-0.898 0.23-0.989 0.439-1.634 3.824-1.152 10.743-0.437 13.146 0.064 0.22 0.903-0.023 0.86-0.247" clip-path="url(#clipPath3021-9)"/>
   <path transform="matrix(-2.8411 -.55133 .55144 -2.8404 171.4 139.1)" d="m0 0c0.394-0.276 0.273-1-0.135-0.739-1.447 0.932-7.099 2.406-9.467 1.913-0.849-0.177-0.486 0.608 0.359 0.798 2.29 0.509 7.503-0.746 9.243-1.972" clip-path="url(#clipPath3023-5)"/>
   <path transform="matrix(-2.8411 -.55133 .55144 -2.8404 246.33 269.41)" d="m0 0c-7.749-5.356-13.853-13.604-14.691-17.944-1.504-7.79 2.19-12.775 10.682-14.414 3.14-0.607 4.618-0.59 5.698-0.577 0.597 8e-3 1.487-0.256 0.934-0.403-1.764-0.465-3.607-0.668-6.83-0.045-8.896 1.718-13.471 7.505-11.887 15.709 0.869 4.5 7.191 13.263 15.623 18.356 0.196 0.118 0.659-0.552 0.471-0.682" clip-path="url(#clipPath3031-1)"/>
   <path transform="matrix(-2.8411 -.55133 .55144 -2.8404 167.03 268.95)" d="m0 0c0.119-0.197-0.356-0.439-0.495-0.258-1.157 1.531-3.142 2.316-5.003 2.019-0.226-0.036-0.294 0.408-0.081 0.491 1.48 0.581 4.273-0.123 5.579-2.252" clip-path="url(#clipPath3045-9)"/>
  </g>
  <path transform="matrix(-2.8411 -.55133 .55144 -2.8404 136.3 287.63)" d="m0 0c-0.196-1.017-1.395-2.242-2.665-1.438 0 0-1.082-0.628-2.142-0.021 0 0-1.005-0.394-1.727 0.21 0 0-0.554-0.142-1.002-0.056-0.209 0.041-0.464 0.379-0.331 0.856 0.199 0.705-1.324 1.093-1.324 1.093 1.54 3.048 2.348 3.157 5.141 2.617 2.901-0.56 4.31-1.915 4.05-3.261" clip-path="url(#clipPath3047-3)" fill="#ffe200"/>
  <path transform="matrix(-2.8411 -.55133 .55144 -2.8404 224.61 292.55)" d="m0 0c3.055 1.703 5.281 2.205 9.764 1.34 2.412-0.466 4.262-2.334 3.816-4.642-0.19-0.986-1.434-0.84-1.434-0.84s-0.765-0.754-2.046-0.165c0 0-0.733-0.107-1.411 0.398 0 0-0.384-0.382-0.803-0.301-0.418 0.081-0.929 0.324-0.848 0.742 0.081 0.419 0.226 1.383-0.212 1.364-2.641-0.112-6.826 2.104-6.826 2.104" clip-path="url(#clipPath3049-8)" fill="#ffe200"/>
  <g fill="#0f141b">
   <path transform="matrix(-2.8411 -.55133 .55144 -2.8404 164.11 292.15)" d="m0 0c0.785 2.595 2.982 4.02 6.525 3.328 2.117-0.413 3.988-2.028 3.621-3.841-0.318-1.573-2.335-2.345-3.356-1.315-0.16 0.164 0.233 0.538 0.394 0.375 0.567-0.573 1.853-0.185 2.082 0.946 0.272 1.354-0.507 2.416-3.216 2.94-2.614 0.505-4.48-0.583-5.386-2.682-0.194-0.45-0.815-0.242-0.664 0.249" clip-path="url(#clipPath3051-4)"/>
   <path transform="matrix(-2.8411 -.55133 .55144 -2.8404 141.7 289.54)" d="m0 0c9e-3 -1.4-1.672-2.394-3.144-1.45-0.191 0.126 0.255 0.822 0.448 0.699 1.034-0.664 2.009-0.027 2.147 0.795 0.068 0.409 0.547 0.372 0.549-0.044" clip-path="url(#clipPath3053-9)"/>
   <path transform="matrix(-2.8411 -.55133 .55144 -2.8404 146.97 289.58)" d="m0 0c-0.045-1.778-1.441-2.489-3.056-1.618-0.202 0.11 0.147 0.671 0.349 0.562 1.075-0.58 1.959 0.118 2.117 1.095 0.08 0.497 0.602 0.464 0.59-0.039" clip-path="url(#clipPath3055-1)"/>
   <path transform="matrix(-2.8411 -.55133 .55144 -2.8404 151.91 290.66)" d="m0 0c-0.229-1.188-1.021-2.111-2.464-1.521-0.468 0.191-0.679 0.701-0.404 1.309 0.269 0.593 0.62 0.406 0.515-0.142-0.163-0.842 1.304-0.954 1.786 0.419 0.192 0.544 0.676 0.499 0.567-0.065" clip-path="url(#clipPath3057-4)"/>
   <path transform="matrix(-2.8411 -.55133 .55144 -2.8404 182.86 292.6)" d="m0 0c-0.093-1.053-0.94-1.926-2.309-1.785-0.227 0.021 0.183 0.638 0.287 0.651 0.631 0.086 1.1 0.562 1.147 1.096 0.17 1.95-1.384 3.409-3.76 3.868-3.613 0.697-7.312 0.225-9.28-1.184-0.351-0.254-1.084-0.04-0.774 0.26 2.074 2.019 6.459 2.692 10.254 1.959 2.798-0.54 4.649-2.427 4.435-4.865" clip-path="url(#clipPath3059-1)"/>
   <path transform="matrix(-2.8411 -.55133 .55144 -2.8404 187.73 292.36)" d="m0 0c0.34-1.3-0.162-3.086-2.739-2.092-0.214 0.08 0.035 0.681 0.253 0.61 1.626-0.534 2.116 0.274 1.938 1.443-0.095 0.606 0.393 0.637 0.548 0.039" clip-path="url(#clipPath3061-6)"/>
   <path transform="matrix(-2.8411 -.55133 .55144 -2.8404 192.4 292.61)" d="m0 0c0.451-1.615-0.89-3.086-2.497-2.157-0.199 0.112 0.214 0.83 0.414 0.715 0.758-0.438 1.639 0.254 1.528 1.38-0.062 0.62 0.384 0.668 0.555 0.062" clip-path="url(#clipPath3063-3)"/>
   <path transform="matrix(-2.8411 -.55133 .55144 -2.8404 202.77 293.45)" d="m0 0c0.136-0.396 0.187-0.802 0.124-1.069-0.103-0.439 0.069-0.755 0.352-0.81 0.494-0.095 1.02 0.805 0.856 1.597-0.16 0.767 0.322 0.861 0.548 0.108 0.425-1.413-0.386-2.744-1.561-2.516-0.807 0.155-1.219 0.879-1.001 1.809 0.035 0.15 0.14 0.433 0.059 0.745-0.085 0.329 0.456 0.626 0.623 0.136" clip-path="url(#clipPath3065-2)"/>
   <path transform="matrix(-2.8411 -.55133 .55144 -2.8404 223.79 292.14)" d="m0 0c1.033-0.871 4.364-1.944 6.512-2.23 0.686-0.09-0.083-0.769-0.25-0.765-2.181 0.047-4.337 0.71-6.024 2.246-0.717 0.651-0.517 0.985-0.238 0.749" clip-path="url(#clipPath3067-4)"/>
  </g>
  <g>
   <path transform="matrix(-2.8411 -.55133 .55144 -2.8404 79.755 147.87)" d="m0 0c-0.2-1.036-2.016-1.017-3.449-0.74-1.436 0.278-4.386 1.261-5.244 1.095-0.859-0.165-5.309-1.372-6.742-1.095-1.435 0.278-12.648 5.998-17.43 6.922-4.781 0.922-10.599-0.103-10.599-0.103-22.254-6.166-56.479 9.276-51.425 10.107 1.14 0.189 2.418 0.301 3.807 0.37 5.967 0.295 12.557 0.178 17.641 1.677 5.085 1.498 6.053 1.807 7.208 3.074 1.154 1.264 5.194 6.352 6.629 6.075 1.435-0.278 5.75-7.889 6.691-8.154 0.941-0.264 5.282-1.763 11.737-3.009 6.454-1.246 14.538-0.907 19.957-1.953 12.601-2.434 21.752-11.507 21.219-14.266" clip-path="url(#clipPath3069-7)" fill="#ffe560"/>
   <path transform="matrix(-2.8411 -.55133 .55144 -2.8404 367.88 157.07)" d="m0 0c2.912 0.975 7.652 1.337 15.248 1.643 6.527 0.264 12.15 1.557 15.165 3.086 2.016 1.022 6.148 7.967 8.578 7.499 0.996-0.193 5.883-8.109 6.655-8.483 0.434-0.212 5.967-1.883 9.441-2.554 5.699-1.1 17.697-1.275 20.841-1.882 17.868-3.452 23.371-13.603 22.986-15.599-0.181-0.935-2.589-1.319-4.563-0.939-2.041 0.395-3.803 0.602-4.52 0.562-1.755-0.095-4.507-0.645-6.917-0.18-4.602 0.889-12.551 5.575-17.564 6.542-4.533 0.875-10.5 0.034-16.208-0.672-15.315-1.896-35.947 1.731-46.413 6.234-1.252 0.538-1.368 1.51-0.127 0.975 11.897-5.113 35.406-7.423 46.547-6.045 5.773 0.713 11.742 1.452 16.402 0.552 5.114-0.987 13.366-5.484 17.63-6.307 2.629-0.508 4.899 0.109 6.713 0.191 0.804 0.038 2.241-9e-3 4.72-0.488 1.102-0.213 2.615-0.266 2.852-0.045 0.786 0.76-4.061 10.471-21.794 13.894-3.09 0.598-5.418 0.732-8.112 0.887-3.224 0.186-6.877 0.397-12.629 1.507-3.464 0.669-9.097 2.356-9.646 2.622-0.963 0.467-5.807 7.679-6.566 7.825-1.553 0.3-6.228-5.939-7.198-6.573-2.912-1.901-9.113-3.467-15.774-3.735-8.42-0.34-12.911-0.742-15.351-1.752z" clip-path="url(#clipPath3071-9)" fill="#0f141b"/>
   <path transform="matrix(-2.8411 -.55133 .55144 -2.8404 282.73 127.16)" d="m0 0c2.181-0.784 4.52-2.278 5.574-3.888 0.552-0.845 0.15-1.109-0.464-0.308-0.793 1.036-3.112 2.414-5.518 3.279-0.215 0.077 0.192 0.995 0.408 0.917" clip-path="url(#clipPath3073-7)" fill="#0f141b"/>
   <path transform="matrix(-2.8411 -.55133 .55144 -2.8404 247.29 177.57)" d="m0 0c-3.359 2.715-7.401 5.072-12.67 7.884 0 0-1.535-6.235 0.275-12.702 0 0 1.869-2.7 7.184-6.132 1.46-0.943 8.518 8.276 5.211 10.95" clip-path="url(#clipPath3075-9)" fill="#ffe200"/>
  </g>
  <g fill="#0f141b">
   <path transform="matrix(-2.8411 -.55133 .55144 -2.8404 287.63 162.16)" d="m0 0s-0.829-2.796-0.644-5.684c0.186-2.887 0.63-6.693 0.63-6.693s-4.092 3.209-7.209 6.972c-3.118 3.764-6.119 8.127-5.576 9.012 0.543 0.887 5.89-0.641 7.733-1.37 1.844-0.726 5.066-2.237 5.066-2.237" clip-path="url(#clipPath3077-6)"/>
   <path transform="matrix(-2.8411 -.55133 .55144 -2.8404 324.63 159.81)" d="m0 0c-0.785-1.215 11.44-17.599 25.586-24.643 0.16-0.08-0.427-0.714-0.661-0.603-15.153 7.142-28.044 23.878-25.721 26.046 1.764 1.649 25.324-5.249 34.294-20.983 0.565-0.994-0.118-1.407-0.71-0.427-8.326 13.811-31.793 22.147-32.788 20.61" clip-path="url(#clipPath3079-2)"/>
   <path transform="matrix(-2.8411 -.55133 .55144 -2.8404 286.46 162.39)" d="m0 0c-0.396-2.05-0.6-9.973 0.566-13.338 0.076-0.215-0.898 0.23-0.989 0.439-1.634 3.824-1.152 10.743-0.437 13.146 0.064 0.22 0.903-0.023 0.86-0.247" clip-path="url(#clipPath3081-9)"/>
  </g>
 </g>
</svg>
