<?xml version="1.0" encoding="UTF-8" standalone="no"?>
<!-- Created with Inkscape (http://www.inkscape.org/) -->

<svg
   version="1.1"
   viewBox="0 0 290.98 331.46"
   id="svg159"
   sodipodi:docname="300milo.svg"
   inkscape:version="1.3 (0e150ed, 2023-07-21)"
   xmlns:inkscape="http://www.inkscape.org/namespaces/inkscape"
   xmlns:sodipodi="http://sodipodi.sourceforge.net/DTD/sodipodi-0.dtd"
   xmlns="http://www.w3.org/2000/svg"
   xmlns:svg="http://www.w3.org/2000/svg">
  <defs
     id="defs159" />
  <sodipodi:namedview
     id="namedview159"
     pagecolor="#505050"
     bordercolor="#eeeeee"
     borderopacity="1"
     inkscape:showpageshadow="0"
     inkscape:pageopacity="0"
     inkscape:pagecheckerboard="0"
     inkscape:deskcolor="#d1d1d1"
     inkscape:zoom="1.4240029"
     inkscape:cx="155.19631"
     inkscape:cy="144.3115"
     inkscape:window-width="1112"
     inkscape:window-height="692"
     inkscape:window-x="0"
     inkscape:window-y="25"
     inkscape:window-maximized="0"
     inkscape:current-layer="svg159" />
  <path
     d="m 148.185,92.51 c 3.6138,-0.75025 8.707,-2.1954 13.617,-3.7632 -0.17602,-1.6321 -0.52902,-4.1906 -0.86855,-6.2604 1.8899,-0.69542 9.3856,-3.1285 10.529,-3.624 -0.69542,-1.3165 -2.7078,-7.499 -3.1557,-9.0123 1.7645,-0.59731 7.499,-2.6094 9.2635,-3.1557 -1.6695,-4.4892 -8.215,-19.898 -10.6,-24.876 11.93,-7.1596 26.725,-12.545 44.044,-15.544 -1.2962,5.9314 -3.3422,18.272 -4.4078,24.044 -9.1616,1.113 -16.623,2.7417 -26.08,5.782 1.3743,3.1048 4.0346,10.193 5.4699,14.743 -1.7034,0.42418 -7.2648,1.6423 -10.485,2.5517 0.42418,1.1265 2.3379,7.5703 2.5822,8.8766 -1.9443,0.73005 -10.441,2.6128 -12.657,3.2846 0.13562,1.5677 0.44149,4.6012 0.57711,5.8974 -5.3849,1.6355 -14.828,3.0335 -17.488,3.3728 z"
     fill="#ffe100"
     id="path1" />
  <path
     d="m 180.632,56.068 c 9.406,-3.0199 16.847,-4.6384 25.972,-5.748 0.1462,-0.79738 0.3126,-1.7237 0.49247,-2.7349 -10.746,1.8357 -24.289,6.2095 -26.81,8.2421 z"
     fill="#f9be00"
     id="path2" />
  <path
     d="m 165.572,85.516 c 2.4058,-0.69927 10.614,-2.5279 12.521,-3.2439 -0.0673,-0.35589 -0.25778,-1.096 -0.50882,-2.0054 -4.8285,1.5847 -10.811,4.1838 -12.249,4.954 z"
     fill="#f9be00"
     id="path3" />
  <path
     d="m 173.422,82.141 c -0.0481,-0.09811 -1.9103,-0.07695 -2.6568,-0.07695 0.44823,-0.4992 1.5541,-1.6151 1.5133,-1.7373 -0.0385,-0.126 -2.9792,-0.17602 -4.6758,-0.10869 -2.545,0.86182 -5.5649,1.8595 -6.6677,2.2667 0.33569,2.0664 0.68869,4.6283 0.86567,6.2604 -4.9066,1.5677 -10.003,3.0132 -13.617,3.7631 l 0.34242,2.3176 c 2.6568,-0.33953 12.1,-1.7373 17.489,-3.3762 -0.13947,-1.2928 -0.44438,-4.3264 -0.58,-5.8974 1.0587,-0.31934 3.5459,-0.9128 6.0704,-1.5303 0.91569,-0.7666 1.9409,-1.7577 1.9172,-1.8833"
     fill="#763b00"
     id="path4" />
  <path
     d="m 175.522,73.394 c 3.2236,-0.9128 8.7748,-2.1242 10.475,-2.5482 -0.1664,-0.52902 -0.34915,-1.0893 -0.54633,-1.6729 -3.5052,1.0417 -9.5994,3.2201 -10.275,4.0379 0.12504,0.06733 0.24046,0.12889 0.34626,0.18371"
     fill="#f9be00"
     id="path5" />
  <path
     d="m 165.572,85.516 c 1.1232,-0.32607 3.5119,-0.89933 5.9347,-1.4896 0.9128,-0.77044 1.9409,-1.7612 1.9172,-1.8867 -0.0192,-0.03847 -0.35973,-0.05771 -0.80122,-0.06733 -3.3253,1.303 -6.325,2.6365 -7.2885,3.1523 z"
     fill="#542500"
     id="path6" />
  <path
     d="m 148.526,94.828 c 2.6603,-0.33953 12.1,-1.7373 17.489,-3.3763 -0.0481,-0.43764 -0.11254,-1.079 -0.18275,-1.7915 -5.5038,1.8968 -13.936,4.0005 -17.36,4.798 z"
     fill="#542500"
     id="path7" />
  <path
     d="m 148.478,94.605 c 2.8198,-0.42033 11.768,-1.9036 17.051,-3.461 -0.14621,-1.4014 -0.31261,-4.0786 -0.44149,-5.5581 -0.0192,-0.227 0.0577,-0.30876 0.24815,-0.36262 0.93012,-0.28182 2.9555,-0.77333 5.1034,-1.2962 2.7858,-0.67811 5.7616,-1.5473 7.0986,-1.9884 -0.40686,-1.7713 -1.9613,-7.3768 -2.3549,-8.4185 -0.0981,-0.26451 -0.01,-0.38378 0.23084,-0.45784 2.4669,-0.75698 9.0497,-2.3244 10.007,-2.5585 -1.5032,-4.686 -3.9395,-11.384 -5.2154,-14.258 -0.12215,-0.28182 -0.0577,-0.38666 0.21353,-0.47515 9.2125,-2.9622 16.559,-4.8285 25.717,-5.9585 0.32895,-1.7984 3.3253,-18.775 4.2042,-22.911 -16.572,2.9995 -30.6,7.9706 -42.748,15.096 2.5788,5.4394 8.7137,20.302 10.305,24.577 0.0866,0.22411 -0.01,0.38378 -0.22411,0.45496 -1.398,0.48189 -6.5522,2.3109 -8.751,3.1082 0.50594,2.0427 1.907,6.2808 2.8469,8.5644 0.10869,0.26451 0.0673,0.37705 -0.16928,0.48189 -0.66849,0.29144 -9.3246,3.2507 -10.217,3.5696 0.29144,1.9884 0.60789,4.4553 0.77717,6.0365 0.0289,0.24816 -0.0769,0.29817 -0.24816,0.35588 -5.3341,1.7001 -10.329,2.8979 -13.715,3.5798 -0.96705,0.19718 -1.0315,-0.21738 -0.0673,-0.43091 3.3084,-0.7262 8.0555,-2.2157 13.264,-3.8716 -0.1866,-1.6491 -0.57711,-4.0312 -0.88875,-5.9449 -0.0385,-0.2472 -0.0192,-0.29529 0.22411,-0.38378 0.80796,-0.29817 9.2532,-3.037 10.258,-3.417 -0.8041,-1.9036 -2.762,-7.4515 -3.1692,-8.8325 -0.0673,-0.24046 -0.007,-0.353 0.22026,-0.42802 1.1198,-0.36935 7.5194,-2.4329 9.0768,-2.9419 -1.8052,-4.7572 -8.181,-19.514 -10.6,-24.557 -0.10869,-0.23085 -0.0673,-0.32607 0.13562,-0.44823 12.345,-7.4073 27.461,-13.03 44.577,-15.806 0.34915,-0.0577 0.47804,0.0673 0.40013,0.41744 -0.88587,4.0515 -4.2381,22.67 -4.574,24.496 -0.0385,0.23085 -0.12215,0.26163 -0.30202,0.28183 -9.1006,1.1062 -16.664,2.5552 -25.751,5.4563 1.3607,3.1455 4.0278,9.9455 5.4597,14.479 0.077,0.23758 -0.007,0.38378 -0.24816,0.44438 -1.0553,0.25778 -8.0216,1.7814 -10.247,2.3956 0.59058,1.751 2.3651,7.4345 2.5924,8.6527 0.0481,0.2472 0.01,0.30202 -0.22027,0.39051 -1.1571,0.43476 -4.7063,1.191 -7.7297,1.9274 -1.9477,0.47131 -3.7936,0.92242 -4.7979,1.2045 0.14909,1.6389 0.5194,4.4689 0.64445,5.67 0.0192,0.21738 -0.0192,0.30202 -0.24432,0.36935 -5.3103,1.6118 -14.496,2.7757 -17.668,3.1964 -1.0994,0.1462 -1.0179,-0.29818 -0.0577,-0.44149"
     fill="#0f141b"
     id="path8" />
  <path
     d="m 142.356,33.569 c -3.4102,-20.319 6.4742,-33.62 9.182,-33.209 1.8289,0.27509 3.3626,18.347 -2.6365,30.756 z"
     fill="#ffe100"
     id="path9" />
  <path
     d="m 148.901,31.1142 c 2.623,-5.4257 3.8072,-11.937 4.1533,-17.57 -1.2928,6.0602 -3.763,14.038 -5.8634,18.211 z"
     fill="#f9be00"
     id="path10" />
  <path
     d="m 165.132,33.2961 c 10.159,-15.408 29.741,-19.511 31.139,-17.115 1.1265,1.9341 -8.8392,15.052 -26.572,19.911 z"
     fill="#ffe100"
     id="path11" />
  <path
     d="m 168.642,35.4436 1.0587,0.64829 c 16.674,-4.5673 26.48,-16.44 26.65,-19.446 -6.1824,7.6924 -19.26,15.548 -27.709,18.798"
     fill="#f9be00"
     id="path12" />
  <path
     d="m 158.102,28.6369 c -11.248,-1.6558 -22.388,3.5833 -23.83,14.886 -0.69254,5.4088 1.337,10.814 6.3181,14.53 -9.6401,-2.4092 -15.551,-2.1546 -17.577,0.66849 -1.1334,1.5745 -1.1334,4.1635 0.10485,5.117 0.42706,0.32896 1.0078,0.40687 1.2589,0.11542 0.2068,-0.24431 0.0866,-0.72619 -0.10196,-1.174 0.29144,0.0481 0.54633,0.0866 0.75313,0.0673 2.4431,1.8323 8.4354,5.7481 12.053,7.7874 -0.91568,1.6287 -1.9036,3.2914 -2.5245,4.0752 -1.2488,1.5813 -3.8649,2.4669 -5.4224,6.1485 -1.7272,4.0854 -0.0577,7.6347 2.9317,10.18 2.9045,2.4702 9.4908,3.6273 12.127,4.6419 5.2086,2.0054 9.5825,4.6724 13.444,5.541 6.5014,1.4591 11.018,-2.6059 12.216,-8.3846 0.92242,-4.4485 0.44149,-16.871 -0.43475,-20.882 -0.53576,-2.4669 -1.6694,-6.9764 -2.8367,-10.526 5.1678,-1.7984 8.8359,-5.2425 9.8573,-10.047 2.3447,-11.021 -4.7572,-20.746 -18.337,-22.745"
     fill="#ffe100"
     id="path13" />
  <path
     d="m 137.757,44.327 c 1.9613,-0.61751 4.1974,1.4828 5.0253,4.0582 0.75313,2.3413 0.2068,5.7243 -1.8968,6.3215 -1.8765,0.53575 -4.004,-1.2317 -4.9066,-4.0718 -0.77333,-2.4363 -0.3732,-5.6293 1.7781,-6.3079"
     fill="#ed1c24"
     id="path14" />
  <path
     d="m 172.912,48.846 c 1.4421,0.7868 2.08,3.4406 0.34626,6.5216 -1.2045,2.1412 -4.255,3.8479 -5.9346,2.8673 -1.6628,-0.96704 -1.7476,-4.0176 -0.1664,-6.4369 1.8663,-2.8469 4.323,-3.7359 5.7549,-2.952"
     fill="#ed1c24"
     id="path15" />
  <path
     d="m 130.697,89.579 c -4.2177,-0.61078 -9.3347,0.66849 -9.4399,1.4862 -0.14909,1.1402 4.0278,1.6627 8.4152,2.6365 2.114,0.47131 7.9096,2.6705 7.9435,0.16929 0,0 0.0385,-0.48574 0.0289,-1.0383 -0.80411,-0.34915 -6.9459,-3.254 -6.9459,-3.254"
     fill="#ffe100"
     id="path16" />
  <path
     d="m 151.539,0.359 c -1.7407,-0.26451 -6.4471,5.1509 -8.6798,14.445 2.83,-2.718 7.0172,-4.7098 10.309,-5.2018 -0.0192,-5.2968 -0.79738,-9.1175 -1.6287,-9.2431"
     fill="#0f141b"
     id="path17" />
  <path
     d="m 196.262,16.181 c -0.57711,-0.98744 -4.255,-0.86856 -9.087,0.69541 0.46842,3.3763 0.27124,7.6822 -1.4488,11.615 7.4515,-5.29 11.255,-11.079 10.536,-12.311"
     fill="#0f141b"
     id="path18" />
  <path
     d="m 149.884,54.136 c 0.73293,2.8062 2.1004,5.049 3.6884,5.1984 1.2216,0.11157 2.9826,-1.8561 4.3569,-4.2144 -1.7645,-2.908 -6.3385,-3.3626 -8.0453,-0.98407"
     fill="#ed1c24"
     id="path19" />
  <path
     d="m 159.102,50.4 c -2.1546,-0.16255 -2.8842,-1.1164 -4.4315,-1.398 -1.6321,-0.29529 -3.0674,0.30202 -5.0117,0.01 -0.10869,-0.01 -0.21353,-0.0385 -0.31548,-0.0673 -0.0962,1.7204 0.1183,3.5493 0.54633,5.1882 1.7068,-2.3752 6.2808,-1.9205 8.0452,0.98744 0.91569,-1.5711 1.6593,-3.3084 1.9545,-4.7234 -0.227,0.0192 -0.48189,0.0192 -0.7868,0"
     fill="#b01419"
     id="path20" />
  <path
     d="m 150.743,62.791 c -0.0866,0.31934 1.0417,1.5168 1.907,1.7102 0.81084,0.17986 2.4737,-0.46169 2.5246,-0.89549 0.0673,-0.58384 -4.3094,-1.2724 -4.4316,-0.81469"
     id="path21"
     style="fill:#f9be00" />
  <path
     d="m 143.695,94.012 c -4.7063,-1.5032 -13.671,-2.4498 -14.944,-12.029 -1.0112,3.6104 0.60405,6.7491 3.3185,9.0565 2.9046,2.4702 9.4908,3.6273 12.127,4.6419 5.2085,2.0054 9.579,4.669 13.444,5.5377 3.9361,0.88587 7.1461,-0.25778 9.3313,-2.5822 -7.5262,3.9938 -16.593,-2.4906 -23.277,-4.625"
     id="path22"
     style="fill:#f9be00" />
  <path
     d="m 130.697,89.579 c -0.86182,-0.126 -1.761,-0.16929 -2.6501,-0.15582 1.5575,1.1028 3.3288,2.8605 4.496,5.0558 2.3787,0.62136 5.0491,1.0893 5.0728,-0.60693 0,0 0.0385,-0.48574 0.0289,-1.0384 -0.80411,-0.34915 -6.9459,-3.254 -6.9459,-3.254"
     id="path23"
     style="fill:#f9be00" />
  <path
     d="m 125.054,62.863 c 2.46,1.8392 8.4253,5.7379 12.029,7.7704 l 1.208,-2.1411 c -2.2498,-0.57711 -11.282,-5.2256 -13.006,-6.9425 0.30202,0.92338 0.17313,1.2589 -0.23085,1.3131"
     id="path24"
     style="fill:#f9be00" />
  <path
     d="m 124.445,63.264 c -0.0385,-0.15967 -0.0981,-0.32222 -0.1664,-0.48574 z"
     id="path25"
     style="fill:#f9be00" />
  <path
     d="m 151.592,0.014 c -3.4102,-0.5194 -12.68,13.037 -9.8708,31.597 l 0.6579,-0.35974 c -2.0427,-18.982 6.9934,-30.851 9.1006,-30.549 1.415,0.52902 2.4329,16.861 -1.8765,27.912 l 0.79738,-0.12215 c 4.781,-11.628 3.4882,-28.13 1.191,-28.479"
     id="path26"
     style="fill:#0f141b" />
  <path
     d="m 134.763,43.605 c 0.85797,-6.7185 5.2798,-10.797 8.7002,-12.558 1.2013,-0.61751 1.1232,-0.99763 -0.16929,-0.51267 -3.3016,1.2385 -8.5509,5.4461 -9.5111,12.948 -0.67907,5.3205 1.2758,11.713 8.1911,15.843 1.588,0.94646 1.8459,0.49535 0.26836,-0.50209 -5.9177,-3.7428 -8.2115,-9.4908 -7.4786,-15.219"
     id="path27"
     style="fill:#0f141b" />
  <path
     d="m 171.922,34.7522 c -1.096,-0.98061 -1.51,-0.68869 -0.42706,0.35973 2.4974,2.416 5.972,7.7162 4.6182,15.364 l 0.8445,0.64444 c 1.588,-8.1606 -2.3006,-13.919 -5.0355,-16.369"
     id="path28"
     style="fill:#0f141b" />
  <path
     d="m 166.972,31.8357 c 1.1842,0.60405 1.4727,0.13274 0.29817,-0.56653 -5.273,-3.1489 -12.168,-4.2178 -18.069,-2.7926 -1.4421,0.34627 -1.415,0.8724 0.0289,0.61078 5.3477,-0.96368 12.049,-0.14621 17.74,2.7485"
     id="path29"
     style="fill:#0f141b" />
  <path
     d="m 196.572,16.006 c -1.6796,-2.8808 -19.938,1.1061 -30.216,14.978 l 0.64155,0.30587 c 10.604,-13.159 27.801,-16.936 28.975,-14.93 0.65502,1.1265 -7.2818,12.826 -23.993,18.68 l 0.54634,0.5598 c 16.745,-5.4529 25.222,-17.577 24.048,-19.592"
     id="path30"
     style="fill:#0f141b" />
  <path
     d="m 159.122,50.793 c -2.0631,-0.15582 -2.6501,-1.1096 -4.5164,-1.4489 -1.7135,-0.30875 -2.8774,0.38378 -5.0355,0.0577 -0.83489,-0.12215 -1.6016,-0.67233 -2.0087,-1.4727 -0.42418,-0.83777 -0.077,-1.0654 0.4713,-0.30491 0.40687,0.5598 1.0383,0.89549 1.6797,0.99081 1.8188,0.26835 3.1625,-0.29529 5.0186,0.0385 1.6796,0.30491 2.2632,1.1842 4.4043,1.3472 1.035,0.0769 1.5507,-0.0866 2.2124,-0.44822 1.13,-0.60789 1.3403,-0.28471 0.29144,0.45784 -0.7262,0.5194 -1.6016,0.84835 -2.5177,0.77718"
     id="path31"
     style="fill:#0f141b" />
  <path
     d="m 159.412,50.577 c -0.81757,3.4543 -4.1635,8.5238 -5.8228,8.3745 -1.8628,-0.17314 -4.0786,-4.3738 -3.8546,-9.7487 l -0.77718,-0.3049 c -0.25104,4.6792 1.8765,10.57 4.5842,10.824 2.6128,0.23373 6.1417,-6.3623 6.7356,-9.26 z"
     id="path32"
     style="fill:#0f141b" />
  <path
     d="m 149.885,53.58 0.2068,0.86182 c 1.4761,-2.2632 5.9822,-1.7577 7.5668,0.90607 l 0.41358,-0.64156 c -2.0427,-2.9588 -6.1891,-3.2778 -8.1878,-1.1265"
     id="path33"
     style="fill:#0f141b" />
  <path
     d="m 157.593,101.725 c -4.2348,-0.9532 -8.371,-3.6816 -13.539,-5.6734 -3.3695,-1.2962 -9.3178,-2.1411 -12.266,-4.6453 -3.5493,-3.0166 -4.7675,-6.8204 -3.1049,-10.79 1.5473,-3.702 3.8989,-4.333 5.4936,-6.179 1.381,-1.5948 4.4587,-7.1053 4.8828,-8.0113 0.5396,-1.1402 0.90221,-0.97387 0.45111,0.24431 -0.33281,0.89548 -3.2744,6.5217 -4.6589,8.276 -1.6389,2.0766 -3.6239,2.304 -5.2356,6.1146 -1.337,3.1625 -0.69254,6.688 2.7417,9.6061 2.9419,2.5008 9.5179,3.7122 11.992,4.6623 3.9972,1.5405 9.3313,4.4112 13.41,5.3307 6.3079,1.4183 10.526,-2.8231 11.578,-7.8926 0.89548,-4.3365 0.5598,-16.739 -0.25393,-20.743 -0.0385,-0.19045 0.077,-0.3732 0.27124,-0.41071 0.19045,-0.03847 0.3732,0.07695 0.41071,0.27124 0.83104,4.0786 1.5304,16.515 0.58673,21.065 -1.3402,6.464 -6.2502,10.234 -12.758,8.7748"
     id="path34"
     style="fill:#0f141b" />
  <path
     d="m 125.423,62.701 -0.93011,0.17602 c 2.2497,1.7543 8.4796,5.9755 12.26,8.1166 l 0.46842,-0.82431 c -3.5425,-2.0088 -9.3144,-5.6395 -11.798,-7.4684"
     id="path35"
     style="fill:#0f141b" />
  <path
     d="m 122.697,58.477 c -1.2758,1.7747 -1.1367,4.5673 0.22699,5.6158 0.32607,0.25104 1.2894,0.45495 1.6592,0.0192 0.20391,-0.23757 0.15582,-0.75697 0.0481,-1.035 0.37994,0.0962 0.89934,0.0673 1.1096,-0.28856 0.14908,-0.25777 0.0289,-0.73004 -0.17987,-1.1434 0.37031,0.0385 0.80411,-0.12215 0.933,-0.37031 0.15966,-0.30875 0.007,-0.89548 -0.29144,-1.3946 0.43091,0.0481 0.9908,-0.11542 1.1265,-0.35973 0.1664,-0.29818 -0.0577,-1.1469 -0.57711,-1.9002 -0.34916,-0.51267 -0.57038,-0.3328 -0.31934,0.23758 0.18371,0.42033 0.41071,1.0552 0.27124,1.2996 -0.0866,0.14909 -0.19044,0.28855 -0.91664,0.26451 -0.32222,-0.0385 -0.37993,0.0866 -0.21065,0.37704 0.29144,0.49247 0.3934,1.001 0.30202,1.174 -0.0866,0.17314 -0.30875,0.25489 -0.69253,0.18275 -0.28182,-0.0577 -0.37031,0.10869 -0.227,0.32607 0.20392,0.30876 0.32896,0.77045 0.17602,0.9532 -0.20006,0.21738 -0.66464,0.15582 -0.95319,0.10484 -0.11831,-0.0192 -0.23758,0.0866 -0.17314,0.21353 0.14236,0.28471 0.30876,0.82431 0.15294,1.001 -0.0962,0.10196 -0.53576,0.0577 -0.85894,-0.19045 -1.0552,-0.81084 -0.99417,-3.2032 0.0481,-4.6453 1.968,-2.7417 8.2217,-2.6772 17.869,-0.2068 l -1.6288,-1.3708 c -9.2261,-2.1988 -14.815,-1.7509 -16.888,1.1334"
     id="path36"
     style="fill:#0f141b" />
  <path
     d="m 127.923,58.428 c -0.23758,-0.47131 -0.0385,-0.58384 0.31934,-0.19333 0.13273,0.14235 0.45784,0.34627 0.60404,0.29144 0.15967,-0.0673 0.30875,-0.43476 0.35973,-0.75024 0.077,-0.46169 0.32607,-0.43765 0.32896,0.0288 0.003,0.56365 -0.21738,1.3063 -0.48863,1.3776 -0.28182,0.0673 -0.88875,-0.28471 -1.1232,-0.75698"
     id="path37"
     style="fill:#0f141b" />
  <path
     d="m 137.205,93.755 c -0.16255,1.8459 -4.1397,0.34242 -7.4583,-0.3934 -2.5889,-0.57711 -8.1165,-1.4727 -8.0317,-2.2226 0.0577,-0.55306 4.764,-1.7102 8.9309,-1.1265 l -0.6858,-1.0044 c -4.0006,-0.39051 -9.0768,0.99754 -9.2058,1.9883 -0.20007,1.544 4.6419,2.131 8.8393,3.0438 2.3888,0.52229 8.2557,3.0606 8.4525,-0.05771 z"
     id="path38"
     style="fill:#0f141b" />
  <path
     d="m 153.124,9.969 -0.0192,-0.73005 c -3.1829,0.43091 -7.0714,2.1546 -9.9116,4.669 l -0.30203,1.3402 c 2.7654,-2.7586 6.99,-4.7606 10.23,-5.2798"
     id="path39"
     style="fill:#0f141b" />
  <path
     d="m 187.532,16.8649 -0.67522,0.20391 c 0.3328,2.572 0.41071,7.1665 -1.6288,11.7 l 1.0756,-0.73005 c 1.7679,-4.1533 1.6424,-8.5815 1.2284,-11.174"
     id="path40"
     style="fill:#0f141b" />
  <path
     d="m 145.366,37.132 c 2.2768,0.22027 3.78,2.1173 3.495,4.4281 -0.25489,2.0766 -1.9749,3.6444 -4.4247,3.3152 -2.097,-0.28182 -3.5425,-2.2328 -3.1829,-4.513 0.27124,-1.7204 1.8969,-3.4441 4.1126,-3.2303"
     id="path41"
     style="fill:#0f141b" />
  <path
     d="m 145.941,37.834 c 0.92627,0.1462 1.4659,1.079 1.3166,1.9239 -0.18372,1.018 -1.0383,1.5371 -1.9443,1.3879 -0.69253,-0.11543 -1.4456,-0.87914 -1.2419,-1.9409 0.17986,-0.93973 1.0621,-1.4964 1.8696,-1.3708"
     fill="#ffffff"
     id="path42" />
  <path
     d="m 167.052,40.46 c 2.253,0.15294 3.4373,2.0156 3.4441,3.9735 0.007,2.1139 -1.8392,3.7223 -4.082,3.5628 -1.6525,-0.11831 -3.5833,-1.5236 -3.4475,-3.909 0.1183,-2.1682 1.7542,-3.7834 4.0854,-3.6273"
     fill="#0f141b"
     id="path43" />
  <path
     d="m 166.632,40.949 c 1.1536,0.0673 1.6084,1.0994 1.5405,1.9341 -0.0866,0.98744 -0.89933,1.5406 -1.7339,1.4693 -0.8926,-0.0769 -1.5948,-0.73967 -1.5303,-1.8154 0.0577,-1.035 0.90607,-1.6389 1.7237,-1.588"
     fill="#ffffff"
     id="path44" />
  <path
     d="m 154.307,46.203 c -0.0673,0.21354 0.42033,0.57327 0.58385,0.59058 0.19718,0.0192 0.72235,-0.20006 0.73293,-0.40398 0.007,-0.20391 -1.2724,-0.33568 -1.3166,-0.1866"
     fill="#0f141b"
     id="path45" />
  <path
     d="m 162.912,61.325 c 2.321,-2.5924 10.499,-7.9978 11.839,-8.5475 0.10196,-0.64156 0.73293,-2.243 1.0858,-2.3074 0.353,-0.0577 0.95031,0.67137 1.1232,0.63482 0.22411,-0.0481 1.3606,-1.2928 1.8392,-1.0621 0.33953,0.16256 0.0577,1.7136 0.21353,1.8425 0.16256,0.12504 1.7509,-0.126 1.968,0.12504 0.25778,0.29817 -0.22411,1.4863 -0.0673,1.6525 0.15293,0.16929 1.4625,0.47516 1.4998,0.84451 0.0481,0.48189 -0.93012,1.1639 -0.92338,1.3302 0.007,0.16928 0.61751,0.74639 0.44149,1.0858 -0.17602,0.33569 -1.2826,0.45496 -1.588,0.44149 -1.3302,2.9215 -7.2004,11.439 -11.276,14.703 -5.7888,4.6351 -11.099,-5.2222 -6.1519,-10.743"
     fill="#ffe100"
     id="path46" />
  <path
     d="m 169.062,72.067 c 4.0753,-3.2643 9.9488,-11.781 11.276,-14.703 0.30587,0.0192 1.4116,-0.10485 1.588,-0.44149 0.0192,-0.0385 0.0385,-0.11831 0.0385,-0.15967 -0.78391,-0.01 -1.5778,-0.11542 -2.0122,-0.17602 -0.20006,-0.0289 -0.34626,0.0866 -0.4511,0.29144 -1.4862,2.9249 -6.3826,9.4093 -8.7273,11.791 -1.0621,1.0791 -2.4838,2.7282 -2.7417,4.0753 0.33953,-0.17987 0.6858,-0.40013 1.0315,-0.67907"
     fill="#f9be00"
     id="path47" />
  <path
     d="m 173.872,93.429 c -0.077,-0.1462 -0.31934,-0.26836 -0.63771,-0.30875 0.11542,-0.29144 0.13562,-0.52902 0.0192,-0.67522 -0.24047,-0.30491 -0.93973,-0.30202 -1.5981,-0.1664 0.0481,-0.1462 0.0481,-0.27124 -0.0289,-0.35973 -0.74639,-0.91568 -5.3748,1.9918 -7.482,3.6613 -2.1038,1.6694 -4.7098,4.9642 -3.7053,6.498 1.0586,1.6083 5.6565,-0.57326 8.3981,-2.5416 4.4756,-3.2134 5.3307,-5.5139 5.0321,-6.1078"
     fill="#ffe100"
     id="path48" />
  <path
     d="m 173.872,93.429 c -0.077,-0.1462 -0.31934,-0.26836 -0.63771,-0.30875 0.11542,-0.29144 0.13562,-0.52902 0.0192,-0.67522 -0.24047,-0.30491 -0.93973,-0.30202 -1.5981,-0.1664 0.0481,-0.1462 0.0481,-0.27124 -0.0289,-0.35973 -0.74639,-0.91568 -5.3748,1.9918 -7.482,3.6613 -2.1038,1.6694 -4.7098,4.9642 -3.7053,6.498 1.0586,1.6083 5.6565,-0.57326 8.3981,-2.5416 4.4756,-3.2134 5.3307,-5.5139 5.0321,-6.1078"
     fill="#ffe100"
     id="path49" />
  <path
     d="m 160.752,99.526 c -0.52228,0.9909 -0.7262,1.9206 -0.3126,2.5517 1.0587,1.6118 5.6565,-0.57326 8.3982,-2.538 1.191,-0.85797 2.1173,-1.6457 2.8435,-2.3549 -5.5988,3.9972 -10.203,4.7301 -10.93,2.3412"
     fill="#f9be00"
     id="path50" />
  <path
     d="m 168.742,71.955 c 3.831,-3.288 9.7622,-11.662 11.276,-14.737 0.077,-0.15967 0.12504,-0.20007 0.33569,-0.20392 0.31549,0.0192 1.1672,-0.12215 1.2114,-0.2645 0.0481,-0.14236 -0.42803,-0.73582 -0.43091,-0.89549 0,-0.15582 0.85508,-1.1197 0.82815,-1.2826 -0.0288,-0.16255 -1.2691,-0.60789 -1.3437,-0.72235 -0.0769,-0.11542 0.0962,-1.4557 -0.0288,-1.5676 -0.16255,-0.15293 -1.7204,-0.0385 -1.7984,-0.12215 -0.077,-0.0866 -0.13273,-1.6423 -0.30587,-1.7169 -0.16928,-0.0673 -1.32,0.98734 -1.4557,1.0044 -0.13947,0.01 -0.933,-0.58385 -1.1029,-0.53576 -0.19334,0.0577 -0.7464,1.3539 -0.83489,1.9239 -0.0192,0.15294 -0.0385,0.19718 -0.21353,0.26836 -1.4353,0.58673 -9.3211,6.05 -11.893,8.4864 -0.8522,0.80411 -1.0654,0.61367 -0.35588,-0.31933 2.2564,-2.9453 9.959,-7.8383 11.815,-8.7375 0.15967,-0.62809 0.70889,-2.3583 1.3233,-2.4872 0.40398,-0.0866 1.1164,0.62808 1.1673,0.66464 0.18371,-0.14236 1.3912,-1.2758 2.0122,-0.98061 0.40398,0.19333 0.35589,1.7373 0.35589,1.8425 0.12889,0 1.7135,-0.0481 1.9375,0.21065 0.25489,0.29817 0,1.571 -0.01,1.6728 0.077,0.0289 1.5202,0.57711 1.5643,1.0281 0.0481,0.46842 -0.86567,1.3369 -0.90607,1.381 0.0673,0.0962 0.48863,0.94647 0.34627,1.2216 -0.15967,0.30202 -1.0383,0.57326 -1.6728,0.61751 -1.6491,3.5018 -7.1223,11.71 -11.455,14.689 -1.1775,0.80796 -1.5338,0.56653 -0.36358,-0.43764"
     id="path51"
     style="fill:#0f141b" />
  <path
     d="m 173.562,92.2 c -0.35589,-0.45496 -1.2351,-0.41744 -1.9714,-0.26162 l -0.23373,0.77718 c 0.71274,-0.25104 1.432,-0.23373 1.5507,-0.03847 0.22027,0.34915 -1.1943,2.3514 -2.9656,3.8208 -0.98071,0.81084 -0.62809,1.0756 0.29817,0.37993 2.0224,-1.5236 3.9463,-3.8785 3.322,-4.6759"
     id="path52"
     style="fill:#0f141b" />
  <path
     d="m 174.222,93.243 c -0.13273,-0.26451 -0.51555,-0.41071 -0.93299,-0.46457 l -0.28856,0.67907 c 0.30491,-0.04809 0.44822,0.04809 0.51555,0.17602 0.14909,0.28471 -0.28182,2.175 -4.9371,5.5174 -3.3084,2.3752 -7.1528,3.797 -7.8519,2.7349 -0.82816,-1.2657 1.6627,-4.3807 3.6986,-5.9958 2.8978,-2.3006 6.5828,-4.1566 6.8814,-3.7631 0.21353,0.28856 -1.8798,2.4261 -2.952,3.1454 -0.81084,0.5396 -0.6002,0.93011 0.227,0.4136 1.1809,-0.73966 4.116,-3.115 3.3627,-4.0379 -0.72235,-0.88875 -4.608,0.82431 -8.0555,3.5594 -2.2157,1.7577 -4.91,5.2833 -3.7427,7.0612 1.0519,1.6016 4.7844,0.6858 8.9716,-2.321 4.5435,-3.2609 5.5276,-5.86 5.1034,-6.705"
     id="path53"
     style="fill:#0f141b" />
  <path
     d="m 102.981,132.355 c -18.812,52.516 -67.518,61.522 -90.806,100.21 -6.2231,10.346 -12.137,22.724 -10.95,36.351 1.9579,-2.002 7.1121,-6.9255 10.037,-9.6367 -0.1664,6.325 1.9816,14.245 4.686,17.702 3.0743,-3.3083 9.26,-10.896 12.27,-14.859 1.7814,4.9439 5.1339,9.4975 6.9933,9.7691 9.9556,-47.237 37.895,-60.362 55.526,-84.369 14.011,-19.077 19.579,-36.508 20.057,-46.874 -2.4397,-1.7237 -5.3206,-4.5605 -7.8146,-8.2964"
     fill="#e85377"
     id="path54" />
  <path
     d="m 110.794,140.655 c -2.4397,-1.7237 -5.3206,-4.5604 -7.8146,-8.2964 -0.44822,1.2521 -0.91953,2.4702 -1.4013,3.6749 7.2648,20.648 -12.022,49.514 -32.066,67.494 -19.375,17.387 -37.939,43.423 -34.567,68.298 0.0962,0.0289 0.18371,0.0577 0.26835,0.0673 9.9557,-47.237 37.895,-60.362 55.523,-84.369 14.011,-19.077 19.579,-36.507 20.057,-46.874"
     id="path55"
     style="fill:#c94768" />
  <path
     d="m 11.599,256.685 c -6.2944,3.5866 -9.0904,8.4762 -10.38,12.192 0.0035,0.0192 0.0035,0.0289 0.0035,0.0481 1.9612,-2.002 9.0089,-9.1141 13.491,-12.545 -0.36358,-0.5194 -2.1446,-0.24816 -3.115,0.30587"
     id="path56"
     style="fill:#c94768" />
  <path
     d="m 15.585,276.475 c 0.12215,0.17602 0.24046,0.353 0.36358,0.50882 3.0742,-3.3084 12.833,-15.09 14.845,-18.469 -5.6395,0.26451 -12.47,9.9285 -15.208,17.96"
     id="path57"
     style="fill:#c94768" />
  <path
     d="m 50.8637,192.945 c -15.14,11.571 -29.657,22.433 -39.616,38.985 -8.6391,14.35 -12.212,26.65 -11.028,38.554 0.09619,0.92627 0.55691,1.0316 1.0214,0.47804 3.6307,-4.3026 9.0972,-10.078 11.727,-12.453 2.7043,-2.4397 2.1207,-3.1048 -0.74352,-0.83489 -2.3685,1.8764 -7.0681,5.687 -10.04,8.6866 -0.30587,-13.081 5.3884,-23.983 10.913,-33.162 9.8471,-16.362 23.932,-27.254 38.981,-38.754 19.983,-15.269 40.369,-31.095 51.292,-61.044 l -0.97724,-1.5778 c -10.736,30.169 -31.502,45.818 -51.529,61.122"
     id="path58"
     style="fill:#0f141b" />
  <path
     d="m 110.187,140.345 c -0.37993,9.8504 -5.609,26.989 -20.067,46.677 -17.624,23.997 -45.411,36.599 -55.516,83.486 -1.717,-0.94358 -4.4214,-4.4925 -5.9551,-8.9309 l -0.81469,1.1842 c 1.4862,4.6996 4.5096,8.9479 7.136,10.214 0.59731,0.28856 0.87914,0.17602 1.0146,-0.46842 9.9284,-47.105 35.483,-57.464 55.36,-84.531 13.071,-17.797 19.44,-35.496 20.094,-46.738 z"
     id="path59"
     style="fill:#0f141b" />
  <path
     d="m 29.447,259.715 c -1.3268,1.7373 -9.3653,10.933 -13.342,15.327 -2.4058,-3.5867 -4.2483,-10.309 -4.0922,-16.165 l -1.3946,1.3166 c -0.20392,6.8509 2.2326,14.659 4.7979,17.936 0.28471,0.36646 0.6002,0.33953 0.88202,0.0385 3.8852,-4.1839 12.606,-15.724 13.943,-17.998 1.1842,-2.0189 0.61751,-2.3039 -0.79353,-0.45496"
     id="path60"
     style="fill:#0f141b" />
  <path
     d="m 203.682,278.235 c 3.8683,-3.1964 9.0937,-13.295 12.324,-21.143 -25.995,13.671 -65.679,17.461 -85.885,4.7403 -23.657,-14.896 -21.503,-49.161 -10.746,-63.914 24.787,-34 34.332,-42.371 35.137,-79.584 0.48862,-22.67 -12.772,-31.577 -13.461,-34.841 -1.5711,-7.4481 -1.4896,-33.352 -1.242,-41.299 0.0866,-2.7824 -2.1513,-3.2202 -3.7224,-0.82816 -4.6588,7.1019 -14.38,26.443 -19.178,37.868 -0.86856,2.0698 -1.7882,3.1556 -3.1692,3.9531 -10.088,5.8024 -16.885,16.203 -16.674,30.576 0.24431,16.837 13.284,28.272 17.716,28.791 3.0336,0.353 7.5397,-1.2759 11.415,-3.3423 -2.8571,23.518 -39.51,34.75 -56.833,63.789 -21.801,36.548 -30.468,83.68 18.646,110.91 46.874,25.985 103.75,18.408 143.03,-7.9605 2.338,-6.3996 3.7291,-13.43 3.7224,-17.56 -7.3768,-3.8207 -23.522,-8.8528 -31.075,-10.156"
     fill="#fff1ac"
     id="path61" />
  <path
     d="m 106.286,115.48 c -2.667,-7.9197 -2.9351,-18.968 0.19718,-26.725 -3.3966,3.4475 -6.0433,7.672 -7.6516,12.64 2.1852,4.3027 5.7548,10.841 7.4548,14.085"
     fill="#e85377"
     id="path62" />
  <path
     d="m 97.286,117.103 c 1.6084,3.6647 4.4587,6.5286 7.9842,6.0196 -0.76371,-2.5347 -4.591,-10.529 -7.6619,-16.705 -0.3934,2.3175 -0.58385,4.7641 -0.54633,7.3429 0.0192,1.1401 0.0962,2.253 0.22411,3.3422"
     fill="#ba004f"
     id="path63" />
  <path
     d="m 122.508,122.579 c 3.5323,2.1208 8.9478,2.494 12.935,-1.4896 3.5866,-3.59 3.6952,-9.5348 0.95031,-13.244 -6.0942,4.1431 -10.709,8.3236 -13.885,14.733"
     fill="#ba004f"
     id="path64" />
  <path
     d="m 205.262,139.345 c 4.3399,4.9812 18.547,14.957 40.746,16.315 26.28,1.6083 40.467,-11.557 40.508,-13.342 0.0673,-3.1591 -16.729,-11.252 -29.253,-11.106 18.208,-10.197 27.553,-25.463 26.117,-27.953 -2.2022,-3.8173 -22.395,-4.1058 -36.511,3.9225 13.6,-18.635 14.557,-37.091 12.962,-38.319 -1.9748,-1.5201 -17.377,1.3505 -32.022,21.082 2.9995,-19.572 -2.545,-34.146 -4.8659,-34.743 -5.8939,-1.5168 -36.568,38.737 -20.427,81.111 -3.2914,2.0868 -14.18,-1.1061 -20.821,8.4863 -8.0182,11.584 0.12215,33.813 27.444,45.581 21.594,9.2974 38.119,26.375 29.646,45.384 -3.7732,8.4661 -12.131,15.724 -22.785,21.326 -3.2269,7.8485 -8.4525,17.947 -12.321,21.143 7.5499,1.2996 23.698,6.3351 31.075,10.156 0.007,4.1261 -1.3844,11.157 -3.7223,17.56 22.541,-15.13 39.297,-36.44 45.035,-61.159 7.4685,-32.185 -7.0951,-66.042 -50.756,-74.589 -26.827,-5.2527 -36.626,-14.611 -34.516,-23.301 1.3641,-5.6259 11.17,-5.2221 14.465,-7.5532"
     fill="#00aeeb"
     id="path65" />
  <path
     d="m 207.792,182.265 c -13.166,-5.4868 -26.341,-15.738 -29.012,-28.174 -0.40687,11.849 9.2396,27.19 30.362,36.287 17.166,7.3938 31.109,19.701 31.859,33.986 0.3328,-0.85124 0.42418,-1.8425 0.24816,-2.9928 -3.2202,-20.838 -14.469,-31.194 -33.457,-39.107"
     fill="#0098cd"
     id="path66" />
  <path
     d="m 276.072,244.795 c 1.5778,-6.7966 2.1682,-13.668 1.7135,-20.359 -5.5784,26.762 -22.307,48.275 -44.702,63.137 0.59731,0.27798 1.1605,0.55307 1.6762,0.82142 0.007,4.1262 -1.381,11.16 -3.7224,17.56 22.541,-15.13 39.297,-36.44 45.035,-61.159"
     fill="#0098cd"
     id="path67" />
  <path
     d="m 185.742,173.065 c 4.418,-0.5194 10.828,-0.98743 12.908,-1.225 -0.44437,-1.6321 -0.31548,-6.9356 -0.0673,-11.048 -3.7495,-2.46 -6.1179,-5.1 -7.2547,-7.7806 -2.5584,-0.27798 -5.4833,-0.71562 -6.8543,-1.0926 -1.6864,2.8943 -2.2836,10.135 -2.27,15.673 0.96704,1.8357 2.1513,3.6647 3.5357,5.4732"
     fill="#e85377"
     id="path68" />
  <path
     d="m 191.342,172.505 c -3.59,-2.952 -6.6982,-6.2808 -8.9852,-9.9013 -0.10484,1.7102 -0.15294,3.4204 -0.14909,4.9948 0.96705,1.8323 2.1513,3.6647 3.5358,5.4698 1.6932,-0.19718 3.6782,-0.39051 5.5988,-0.56364"
     fill="#c94768"
     id="path69" />
  <path
     d="m 215.952,82.527 c 3.6545,0.94646 6.3996,11.269 2.7316,23.386 -2.891,9.5654 -8.9615,18.082 -13.02,16.878 -3.7563,-1.113 -4.7878,-13.78 -2.6501,-22.181 2.4058,-9.4568 8.9003,-19.127 12.938,-18.082"
     fill="#e85377"
     id="path70" />
  <path
     d="m 268.142,195.955 c -6.7728,-2.8978 -14.665,-5.6667 -20.22,-7.258 -0.6377,2.4872 -5.3681,17.896 -9.2363,26.515 0.63482,1.381 1.1469,2.7926 1.5303,4.2279 l 37.054,0.17602 c -1.2385,-8.4627 -4.2346,-16.528 -9.1277,-23.661"
     fill="#e85377"
     id="path71" />
  <path
     d="m 255.302,267.865 c -2.2836,3.831 -13.97,15.463 -20.549,20.525 0.007,4.1262 -1.3845,11.157 -3.7224,17.56 15.741,-10.566 28.656,-24.149 36.972,-39.799 -4.4722,1.1061 -9.2194,1.8968 -12.701,1.7136"
     fill="#c94768"
     id="path72" />
  <path
     d="m 231.032,305.955 c 2.3379,-6.403 3.7291,-13.434 3.7224,-17.56 -0.51555,-0.26836 -1.0825,-0.54249 -1.6763,-0.82143 -32.344,21.472 -76.496,29.076 -115.91,18.591 -52.574,-13.983 -64.02,-48.638 -60.121,-76.934 -10.441,30.736 -6.9866,63.646 30.953,84.681 46.877,25.989 103.75,18.412 143.03,-7.957"
     id="path73"
     style="fill:#dcd096" />
  <path
     d="m 119.373,197.915 c 24.787,-34 34.332,-42.374 35.137,-79.584 0.126,-5.7379 -0.63483,-10.587 -1.8424,-14.693 l -6.4437,0.1664 c 0.21353,15.88 -4.9642,26.531 -20.03,35.405 -0.353,2.8978 -1.2181,5.6056 -2.4974,8.1844 6.196,3.2676 14.065,16.521 -3.0437,38.913 -13.217,17.295 -13.298,36.572 -7.2207,52.435 -4.1092,-14.92 -0.75024,-31.648 5.9415,-40.827"
     id="path74"
     style="fill:#dcd096" />
  <path
     d="m 137.22,81.403 c 0.23758,4.2381 5.4528,6.4844 7.6143,11.937 l 2.7316,-0.7464 c -3.1285,-4.8184 -6.196,-7.5771 -6.5184,-9.104 -1.571,-7.448 -1.4896,-33.352 -1.2418,-41.295 0.0481,-1.3777 -0.48189,-2.1785 -1.2182,-2.3481 -1.7644,12.538 -1.8798,32.432 -1.3675,41.556"
     id="path75"
     style="fill:#dcd096" />
  <path
     d="m 191.132,152.525 c -0.68869,-1.873 -0.79064,-3.7664 -0.33569,-5.6259 1.3538,-5.5818 11.018,-5.2289 14.387,-7.5024 l -0.0192,-0.65502 c -2.5415,0.78006 -6.3148,1.4625 -10.41,2.1513 -8.6697,1.4625 -6.9527,9.0972 -3.6172,11.632"
     id="path76"
     style="fill:#0098cd" />
  <path
     d="m 205.022,139.505 c 0.077,-0.0481 0.1664,-0.10196 0.24047,-0.15582 4.3399,4.9846 18.547,14.957 40.746,16.315 26.284,1.6083 40.467,-11.557 40.508,-13.339 0.003,-0.13562 -0.0385,-0.28182 -0.0962,-0.43476 -25.191,16.657 -65.346,8.6696 -80.524,-2.6501 -0.26451,-0.19718 -0.58384,-0.0481 -0.87913,0.26451"
     id="path77"
     style="fill:#0098cd" />
  <path
     d="m 257.262,131.215 c 18.208,-10.197 27.553,-25.463 26.117,-27.953 -0.0192,-0.0289 -0.0481,-0.0577 -0.0673,-0.0866 -15.558,19.178 -46.314,37.502 -74.542,35.924 l -0.14621,0.63482 c 20.166,5.4868 39.714,0.50209 54.105,-8.1268 -1.8663,-0.26836 -3.7122,-0.4136 -5.4699,-0.3934"
     id="path78"
     style="fill:#0098cd" />
  <path
     d="m 208.312,136.965 c 22.585,-5.6463 38.961,-22.921 43.881,-32.324 -1.8323,0.73293 -3.6205,1.5778 -5.3205,2.5449 13.6,-18.635 14.56,-37.094 12.965,-38.323 -0.077,-0.05771 -0.1866,-0.11158 -0.30875,-0.15582 -3.5934,24.441 -20.824,50.202 -51.607,67.528 z"
     id="path79"
     style="fill:#0098cd" />
  <path
     d="m 216.802,132.585 c 3.7664,3.8444 13.081,3.8546 23.42,0.41071 10.614,-3.539 19.049,-12.619 17.119,-16.396 -1.8256,-3.5764 -10.509,-3.5052 -16.732,-1.8663 -6.0535,6.4641 -13.844,12.66 -23.807,17.852"
     fill="#e85377"
     id="path80" />
  <path
     d="m 245.582,113.836 c -1.717,0.17987 -3.4237,0.49247 -4.9744,0.90222 -6.0569,6.4607 -13.844,12.66 -23.81,17.848 0.39051,0.40013 0.85124,0.7464 1.3573,1.0621 11.757,-4.9914 21.224,-12.806 27.427,-19.813"
     fill="#c94768"
     id="path81" />
  <path
     d="m 217.422,140.385 c 0.15293,3.2439 6.8848,7.6958 17.933,9.7589 10.312,1.9274 22.348,-1.0214 22.348,-6.213 0,-3.3965 -6.274,-6.2196 -12.31,-7.3869 -8.1539,2.8198 -17.509,4.418 -27.97,3.8411"
     fill="#e85377"
     id="path82" />
  <path
     d="m 249.882,137.725 c -1.4421,-0.48574 -2.9724,-0.88202 -4.4892,-1.174 -8.1539,2.8163 -17.509,4.4145 -27.97,3.8377 0.0192,0.36646 0.12888,0.75024 0.3126,1.1435 11.439,1.4217 22.439,-0.28182 32.147,-3.8072"
     fill="#c94768"
     id="path83" />
  <path
     d="m 206.252,134.395 c 13.101,-9.4433 23.074,-26.559 25.262,-49.069 -1.2351,1.4285 -2.4702,2.9555 -3.702,4.6181 2.9962,-19.572 -2.5449,-34.149 -4.8693,-34.746 -0.0288,-0.007 -0.0577,-0.007 -0.0866,-0.01 3.8818,10.963 3.9327,26.498 -0.0577,42.401 -3.651,14.54 -7.6516,22.324 -16.98,36.097 z"
     fill="#0098cd"
     id="path84" />
  <path
     d="m 233.072,116.202 c 7.465,-7.2174 12.212,-21.167 8.7612,-23.467 -2.6976,-1.7984 -10.726,1.4319 -15.979,6.2876 -2.4023,8.6255 -6.5726,17.875 -13.328,27.115 4.9642,1.3403 14.075,-3.6782 20.546,-9.9353"
     fill="#e85377"
     id="path85" />
  <path
     d="m 225.852,99.021 c -2.4024,8.6255 -6.5726,17.875 -13.332,27.115 0.75698,0.20391 1.6219,0.24431 2.5449,0.17313 6.7525,-7.7399 11.998,-18.011 14.75,-30.332 -1.4013,0.90606 -2.7552,1.9274 -3.9632,3.0437"
     fill="#c94768"
     id="path86" />
  <path
     d="M 209.442,189.665 C 183.99,178.705 173.993,157.24 182.3,145.238 c 6.3351,-9.1514 17.523,-6.5318 20.522,-8.4321 0.35974,-0.22699 0.353,-0.38666 0.23374,-0.69926 -5.8159,-15.269 -5.2085,-30.556 -1.9103,-43.637 5.5072,-21.825 18.408,-37.441 21.554,-36.636 1.5066,0.38378 8.8189,18.666 1.9036,43.718 -2.9792,10.784 -8.7816,22.032 -18.693,33.979 -1.1911,1.4387 -0.68869,1.9681 0.61366,0.63097 10.702,-10.96 16.925,-22.782 20.159,-33.942 6.4607,-22.29 0.62424,-44.641 -3.6273,-45.703 -4.703,-1.1775 -18.836,14.984 -24.078,37.247 -3.0267,12.85 -3.2167,28.113 2.8096,44.271 -3.7393,1.5371 -14.122,-1.0892 -20.648,8.3404 -8.2455,11.914 -0.25778,34.685 27.672,46.714 23.169,9.976 36.708,26.973 29.032,44.193 -12.168,27.302 -78.403,43.565 -107.1,25.497 -23.379,-14.72 -20.62,-48.57 -10.638,-62.265 18.9,-25.924 30.003,-38.248 33.342,-59.361 l -0.90221,-3.5629 c -3.7428,25.164 -19.233,41.641 -33.929,61.804 -10.237,14.038 -14.648,49.378 11.028,65.543 28.082,17.682 96.516,3.763 110.08,-26.667 8.6255,-19.351 -7.5261,-36.806 -30.281,-46.606"
     id="path87"
     style="fill:#0f141b" />
  <path
     d="m 141.811,83.348 c -1.5168,-7.1868 -1.4353,-32.66 -1.1707,-41.139 0.126,-3.9734 -3.2134,-4.4314 -5.1848,-1.4285 -4.5198,6.8882 -14.221,26.23 -19.226,38.143 -0.79353,1.89 -1.6151,2.8842 -2.925,3.6375 -11.136,6.4063 -17.424,17.519 -17.224,31.16 0.25489,17.6 14.14,29.243 18.578,29.762 5.7549,0.67907 15.901,-5.3884 18.795,-8.8189 1.0112,-1.2012 0.42033,-1.7577 -0.706,-0.66464 -3.3186,3.2167 -13.003,8.1302 -17.845,7.5668 -4.0549,-0.47515 -16.593,-11.164 -16.837,-27.817 -0.19044,-13.2 5.3375,-23.719 16.094,-29.904 1.5338,-0.88202 2.5246,-2.1581 3.4136,-4.2788 4.9846,-11.866 14.757,-30.899 19.246,-37.743 1.2691,-1.9307 2.2124,-1.2996 2.1615,0.38666 -0.2068,6.5455 -0.34626,33.562 1.3166,41.451 0.34915,1.6456 2.5381,3.3355 4.7063,6.5454 l 2.7655,0.97388 c -3.0674,-4.3942 -5.5988,-6.1247 -5.9585,-7.8315"
     id="path88"
     style="fill:#0f141b" />
  <path
     d="m 203.842,100.769 c -2.1648,8.5 -1.1638,20.532 1.9918,21.465 3.5086,1.0417 9.1243,-7.2377 12.049,-16.908 3.512,-11.608 1.0045,-21.438 -2.0732,-22.236 -3.2948,-0.85509 -9.6571,8.5949 -11.968,17.679 m 1.6593,22.582 c -4.8149,-1.4285 -5.1034,-15.934 -3.2541,-23.199 2.5653,-10.081 9.2262,-19.385 13.855,-18.188 4.2957,1.1164 7.1596,11.612 3.3966,24.044 -2.9861,9.881 -9.406,18.7 -13.997,17.343"
     id="path89"
     style="fill:#0f141b" />
  <path
     d="m 260.222,68.375 c -1.4964,-1.1503 -15.615,-1.5405 -31.662,19.297 l -0.51555,3.366 c 14.299,-19.433 30.05,-22.894 31.407,-21.696 1.3268,1.174 -0.56365,20.105 -14.801,38.859 -7.9435,10.461 -19.718,20.451 -36.935,28.106 -1.6253,0.71946 -1.1842,1.32 0.27124,0.81469 15.989,-5.5683 30.484,-17.383 38.554,-27.624 15.429,-19.572 15.653,-39.606 13.681,-41.122"
     id="path90"
     style="fill:#0f141b" />
  <path
     d="m 242.152,92.25 c -2.5551,-1.7033 -9.1345,-0.21065 -15.49,5.0694 l -0.71562,2.6434 c 3.9124,-3.7529 12.806,-8.5848 15.561,-6.7457 2.6263,1.7509 -1.7102,15.313 -8.9886,22.351 -7.4548,7.2072 -15.073,10.702 -19.284,10.074 l -0.85509,1.0485 c 4.4994,1.1842 13.288,-2.2124 21.211,-9.8708 7.7195,-7.4685 12.725,-21.795 8.5611,-24.57"
     id="path91"
     style="fill:#0f141b" />
  <path
     d="m 257.862,116.339 c -2.0766,-4.0651 -10.237,-3.8445 -15.833,-2.6365 l -1.6728,1.8663 c 6.0874,-1.6729 14.821,-1.9274 16.471,1.2996 1.5643,3.0674 -6.1213,11.781 -16.837,15.354 -10.061,3.3524 -18.771,3.5018 -22.463,0.24046 l -1.1028,0.5598 c 3.6103,3.6138 12.412,4.5435 24.071,0.65791 12.154,-4.0549 19.402,-13.356 17.366,-17.343"
     id="path92"
     style="fill:#0f141b" />
  <path
     d="m 283.882,102.972 c -2.5788,-4.4688 -21.272,-4.8523 -35.249,2.2429 l -2.399,3.3797 c 13.057,-7.7026 34.512,-8.7307 36.64,-5.0423 1.3267,2.3006 -12.009,20.716 -32.955,30.071 -11.17,4.9846 -24.943,7.5872 -41.126,5.4155 -1.4692,-0.20007 -1.5948,0.43764 -0.14236,0.75024 14.822,3.176 30.641,0.53575 42.011,-4.1737 21.557,-8.9309 35.764,-28.235 33.219,-32.643"
     id="path93"
     style="fill:#0f141b" />
  <path
     d="m 259.362,130.455 -2.5653,1.5778 c 12.599,-0.24046 29.395,7.8756 29.137,10.251 -0.20006,1.8391 -14.441,13.868 -39.975,12.307 -21.981,-1.3437 -35.917,-10.641 -40.26,-15.629 -0.29528,-0.33953 -0.38666,-0.36646 -0.77333,-0.0962 -3.3593,2.3752 -13.328,2.0224 -14.743,7.862 -2.701,11.109 12.511,19.857 34.889,24.238 42.008,8.2252 57.44,40.63 49.816,73.483 -6.99,30.111 -31.248,56.622 -65.329,71.77 -39.412,17.519 -85.146,16.257 -120.93,-3.5798 -43.392,-24.058 -43.501,-66.897 -18.381,-109.01 17.567,-29.453 54.026,-40.243 56.663,-64.644 l -1.5066,0.8724 c -3.3966,22.283 -39.833,33.837 -56.948,62.526 -20.257,33.963 -33.304,83.7 18.866,112.62 38.262,21.211 83.995,21.299 123.4,3.7868 38.404,-17.068 59.829,-44.878 66.514,-73.677 8.6255,-37.135 -11.574,-67.871 -51.885,-75.76 -28.371,-5.5546 -35.693,-14.998 -33.929,-22.27 1.2487,-5.1406 10.787,-5.317 13.736,-6.9933 4.8048,5.212 18.927,15.246 40.762,16.579 25.673,1.5778 41.105,-11.286 41.177,-14.346 0.0769,-3.702 -15.171,-11.374 -27.733,-11.876"
     id="path94"
     style="fill:#0f141b" />
  <path
     d="m 137.01,107.64 -0.97388,0.7262 c 2.5924,3.5866 2.1377,9.0632 -1.0858,12.29 -3.6748,3.6714 -8.6424,3.5119 -12.076,1.4692 l -0.48189,1.0654 c 3.9362,2.2734 9.5247,2.3922 13.495,-1.5778 3.5968,-3.5968 3.9802,-9.9421 1.1232,-13.973"
     id="path95"
     style="fill:#0f141b" />
  <path
     d="m 107.354,88.18 -2.0835,2.253 c -2.1207,6.7661 -2.0087,15.314 -0.29817,22.181 l 2.5279,4.9304 c -3.3253,-8.2082 -3.9294,-20.956 -0.1462,-29.365"
     id="path96"
     style="fill:#0f141b" />
  <path
     d="m 104.934,122.567 c -3.2032,0.5598 -6.2978,-3.0132 -7.543,-6.5522 l 0.3328,2.9418 c 2.5449,4.3942 5.3171,5.0288 7.5261,4.7166 z"
     id="path97"
     style="fill:#0f141b" />
  <path
     d="m 99.089,117.264 c 1.2928,2.1208 3.2744,3.4746 4.9575,2.7281 -1.3539,-3.1251 -3.5085,-7.6312 -5.514,-11.703 -0.92241,2.5177 -0.98397,6.4437 0.55692,8.975"
     id="path98"
     style="fill:#0f141b" />
  <path
     d="m 141.568,155.485 h 0.007 z"
     id="path99"
     style="fill:#0f141b" />
  <path
     d="m 246.902,136.195 -2.4024,0.85509 c 6.3419,1.0621 12.623,3.875 12.623,6.878 0,4.384 -11.211,7.4684 -21.574,5.5343 -10.743,-2.0088 -17.078,-5.9618 -17.519,-8.9105 l -1.1842,-0.0962 c 0.22411,3.5288 7.1224,8.3099 18.473,10.431 10.254,1.9172 22.969,-0.90221 22.969,-6.9594 0,-3.5832 -5.6225,-6.4098 -11.384,-7.7331"
     id="path100"
     style="fill:#0f141b" />
  <path
     d="m 149.103,134.985 c 0.54634,0.11831 0.59058,1.3538 0.34242,2.5618 -0.26162,1.303 -0.86182,2.5721 -1.5269,2.3685 -0.706,-0.21738 -0.67907,-1.6151 -0.32222,-2.8673 0.32896,-1.1536 0.93685,-2.1886 1.5066,-2.063"
     id="path101"
     style="fill:#0f141b" />
  <path
     d="m 146.344,145.175 c 0.53575,0.15294 0.50593,1.3878 0.19044,2.5788 -0.34242,1.2826 -1.0689,2.3548 -1.7204,2.1105 -0.68868,-0.26162 -0.52901,-1.493 -0.0981,-2.7213 0.39724,-1.1334 1.0654,-2.1276 1.6287,-1.968"
     id="path102"
     style="fill:#0f141b" />
  <path
     d="m 141.816,154.965 c 0.48862,0.23084 0.26163,1.4082 -0.23373,2.4974 -0.53287,1.1707 -1.398,2.0766 -1.9816,1.7408 -0.61751,-0.35973 -0.26835,-1.5134 0.34242,-2.6196 0.56365,-1.0179 1.3606,-1.8595 1.873,-1.6185"
     id="path103"
     style="fill:#0f141b" />
  <path
     d="m 181.182,164.285 c 3.0641,3.6579 6.4811,6.9188 10.166,9.8606 2.0597,-0.18275 4.9406,-0.52613 6.1994,-0.75986 2.2904,2.0088 13.502,9.3619 16.637,10.648 0.84162,1.4455 2.0867,3.4272 3.5119,5.3409 1.5711,0.68868 3.1523,1.3607 4.7437,2.019 -2.0019,-2.718 -4.3229,-6.2537 -4.8387,-7.3192 2.9725,-0.80411 14.167,-3.8546 16.674,-4.6995 1.9206,1.3335 9.1481,7.0714 11.092,9.4433 0,1.1774 -1.9172,7.0205 -3.0233,10.275 1.493,0.56653 2.9759,1.1299 4.4451,1.6966 0.88587,-3.1625 2.3514,-8.5034 2.6772,-9.8437 3.8377,0.75024 14.122,4.7945 20.654,8.1267 -1.0689,-1.8119 -2.2463,-3.573 -3.5425,-5.273 -5.5343,-2.4568 -14.913,-5.7888 -17.353,-6.4709 -2.7315,-2.6501 -11.052,-9.0395 -14.306,-10.848 -0.3126,-0.60019 -1.1367,-2.5653 -1.8866,-4.418 -1.1029,-0.31934 -2.2294,-0.61751 -3.3763,-0.89933 0.93012,2.1173 2.0326,4.6148 2.2734,5.4563 -2.2904,0.60019 -12.982,3.4916 -16.26,4.0786 -2.8502,-0.76371 -12.697,-6.9086 -15.622,-9.7555 -0.31933,-1.6729 -0.39724,-6.4471 -0.19718,-9.3551 -0.8724,-0.52229 -1.683,-1.0519 -2.4295,-1.5914 -0.5194,3.0166 -0.69927,7.6076 -0.52614,10.716 -1.0994,0.0673 -6.5862,0.74351 -7.9163,0.81469 -1.0519,-0.9128 -4.2381,-4.0684 -5.0762,-5.0288 -0.5396,-2.9181 0.65118,-11.211 1.3742,-12.708 0.73005,0.0385 4.7165,0.56365 6.9188,0.87913 -0.68869,-1.1061 -1.1571,-2.2259 -1.4184,-3.3457 -1.6457,-0.22027 -4.0278,-0.57711 -4.798,-0.7868 -0.96368,-1.4488 -2.4295,-4.3705 -3.3695,-6.9323 -0.67523,0.82142 -1.7271,2.4125 -2.2701,3.5968 0.64444,1.5676 1.622,3.6511 2.5076,4.9779 -1.1095,3.1896 -1.683,8.0215 -1.666,12.107"
     id="path104"
     style="fill:#0f141b" />
  <path
     d="m 232.602,284.595 c -3.3864,-1.7373 -18.751,-7.3768 -23.437,-8.2455 1.6491,-2.5178 6.6847,-12.416 7.5499,-14.672 3.1252,-1.4761 12.589,-7.8994 14.757,-9.5485 2.779,-0.25778 11.374,-0.69254 14.584,-0.9532 1.3912,2.4296 6.1655,12.935 6.2503,15.884 -3.5594,4.8626 -16.233,15.714 -19.704,17.536 m 25.259,-20.05 c -1.1265,-2.7791 -6.2503,-13.631 -8.0724,-16.929 0.17987,-0.39051 0.47804,-1.0553 0.84162,-1.8527 -1.2216,-0.93684 -2.4364,-1.8357 -3.6273,-2.6908 -0.66176,1.0248 -1.3064,2.002 -1.7272,2.6331 -1.8323,0.29529 -9.8674,1.1469 -14.984,1.5066 -4.625,4.323 -10.505,8.1267 -17.146,11.32 -3.6375,7.214 -10.665,18.401 -12.921,21.462 7.55,1.303 23.698,6.3385 31.075,10.156 0.007,5.4528 -1.8696,12.935 -5.4732,19.134 3.1964,-1.9376 6.291,-3.9938 9.2736,-6.1655 1.4558,-4.8896 2.4092,-10.336 2.7112,-14.445 3.9938,-3.037 15.972,-14.061 18.49,-17.706 2.8775,-0.29144 6.6269,-0.75698 9.959,-1.666 1.1876,-2.0495 2.304,-4.1329 3.3288,-6.2537 -5.2018,1.4591 -9.976,1.8323 -11.727,1.4964"
     id="path105"
     style="fill:#0f141b" />
  <path
     d="m 124.13,119.679 c 2.7994,2.0393 6.3996,1.8255 8.5746,-0.47804 1.9986,-2.1174 1.9511,-6.3827 0.24431,-8.8733 -3.5459,2.7282 -6.4811,5.6497 -8.8189,9.3517"
     id="path106"
     style="fill:#0f141b" />
  <path
     d="m 125.965,117.082 c 1.1978,1.1911 3.254,1.1978 4.1364,0.28856 1.1672,-1.208 0.79737,-3.2236 -0.42418,-4.2957 -1.3471,1.2487 -2.5856,2.572 -3.7122,4.0074"
     fill="#ffffff"
     id="path107" />
  <path
     d="m 278.372,228.855 c 4.2517,0.10484 9.4535,0.35588 11.296,0.55691 -4.3671,-7.0918 -13.637,-14.92 -21.808,-19.314 -29.901,-16.097 -75.977,-21.625 -94.402,-57.427 -12.606,-24.496 -7.4515,-46.843 -25.398,-61.142 -8.9139,-7.0986 -27.892,6.04 -26.762,25.894 l 16.457,-13.681 c 12.175,0.48189 12.175,36.647 26.039,63.65 18.483,36.002 45.377,54.475 70.429,67.586 6.1688,3.2304 20.865,12.755 30.21,23.349 1.2114,-2.4771 0.64156,-11.717 -0.39051,-16.437 6.9222,1.6898 15.045,4.099 19.769,5.6565 0.0481,-3.6273 -2.7552,-12.769 -5.4393,-18.69"
     fill="#e85377"
     id="path108" />
  <path
     d="m 289.522,229.195 c -5.5581,-3.1319 -12.327,-5.4122 -14.35,-5.8091 l 3.1998,5.4766 c 4.2517,0.10196 9.4501,0.35589 11.296,0.55691 -0.0481,-0.0769 -0.0981,-0.14908 -0.1462,-0.22411"
     fill="#c94768"
     id="path109" />
  <path
     d="m 229.802,225.595 c -53.507,-28.377 -66.982,-59.826 -75.821,-95.885 -3.6647,-14.95 -7.197,-23.23 -12.29,-24.95 l 1.4761,2.2802 c 7.1834,9.5723 9.1888,38.078 20.624,60.352 18.483,36.002 45.377,54.474 70.433,67.586 6.1688,3.2304 20.861,12.752 30.21,23.345 0.0962,-0.20007 0.17987,-0.44823 0.25778,-0.7262 -4.4214,-11.262 -16.986,-22.507 -34.889,-32.001"
     fill="#c94768"
     id="path110" />
  <path
     d="m 100.095,116.118 c 0.69927,1.2012 1.9103,1.588 2.701,1.079 -0.83489,-1.8188 -1.7984,-3.8479 -2.7824,-5.8804 -0.72908,1.4319 -0.6204,3.5968 0.077,4.8014"
     fill="#ffffff"
     id="path111" />
  <path
     d="m 283.782,246.775 c -7.2105,-4.9202 -17.621,-7.4854 -20.648,-7.9571 l 0.84163,2.8062 0.21737,0.30587 c 6.8882,1.6899 14.927,4.0719 19.616,5.6191 0.003,-0.23373 -0.007,-0.49535 -0.0288,-0.77332"
     fill="#c94768"
     id="path112" />
  <path
     d="m 290.832,229.355 c -4.1601,-6.7525 -13.763,-15.609 -22.568,-20.349 -29.263,-15.751 -76.347,-22.035 -94.178,-56.677 -12.375,-24.048 -7.0375,-46.755 -25.381,-61.366 -9.199,-7.3328 -28.15,5.3103 -28.028,24.926 l 1.1943,-1.6491 c 1.0621,-17.706 17.838,-28.384 25.751,-22.08 16.919,13.474 12.796,36.667 25.235,60.84 18.897,36.711 64.99,42.093 94.538,57.997 8.2217,4.4247 16.118,10.95 20.424,17.329 -2.399,-0.17602 -5.7989,-0.48478 -9.5926,-0.48478 l 0.90895,1.7306 c 4.0989,0.12215 8.8732,0.42033 11.17,0.66848 0.62136,0.0673 0.85124,-0.35973 0.52613,-0.88586"
     id="path113"
     style="fill:#0f141b" />
  <path
     d="m 276.632,224.405 c -1.7271,-2.3141 -2.494,-1.8594 -0.93684,0.57038 2.6942,4.2042 6.6473,15.996 7.0443,21.174 -4.4791,-1.4488 -11.73,-3.6036 -18.771,-5.2425 l 0.50594,1.9851 c 7.1088,1.7542 15.534,4.6996 19.718,6.0704 0.50209,0.16255 0.74351,0.0385 0.76371,-0.54248 0.17987,-4.859 -5.1576,-19.772 -8.3235,-24.014"
     id="path114"
     style="fill:#0f141b" />
  <path
     d="m 264.172,240.445 c -1.0146,-2.3617 -1.5439,-2.0733 -1.0044,0.32222 0.90607,4.0142 1.415,11.622 0.73967,15.466 -9.0802,-9.9727 -22.48,-18.829 -29.249,-22.372 -22.673,-11.869 -50.973,-29.796 -70.015,-66.887 -12.636,-24.618 -13.454,-54.933 -22.853,-62.258 l -1.1434,0.70888 c 8.3506,5.7175 10.01,38.394 22.368,62.465 19.192,37.383 47.864,56.188 70.691,68.136 6.8678,3.5934 21.604,13.631 30.559,23.769 0.39051,0.44438 0.79738,0.46169 1.0316,-0.01 1.3878,-2.8367 0.75024,-14.978 -1.1232,-19.338"
     id="path115"
     style="fill:#0f141b" />
  <path
     d="m 119.628,117.58 c 10.896,-18.184 37.308,-21.058 65.078,-50.002 21.649,-22.561 18.181,-37.03 14.92,-39.84 -3.2202,-2.7722 -7.9876,1.0281 -9.0361,4.4756 -0.62809,2.0563 -2.1479,1.2521 -1.7916,-0.71562 0.86182,-4.747 6.9392,-11.479 13.064,-7.3395 6.8645,4.6385 6.4776,24.414 -14.764,45.727 -34.987,35.106 -56.439,34.125 -65.241,54.081 z"
     fill="#fff1ac"
     id="path116" />
  <path
     d="m 201.862,24.1589 c -6.1247,-4.1397 -12.202,2.5924 -13.064,7.3361 -0.35973,1.9714 1.1638,2.7756 1.7882,0.71562 1.0485,-3.4441 5.8159,-7.2479 9.0395,-4.4722 3.2609,2.8096 6.7253,17.278 -14.92,39.84 -26.202,27.309 -51.183,31.414 -63.076,47.06 1.6932,-0.9909 3.7393,-2.0495 4.4281,-2.3651 -0.81469,1.0552 -1.476,2.3514 -1.8968,3.4645 1.0519,-0.90222 1.9578,-1.7476 2.7418,-2.1377 -0.66464,0.97041 -1.4727,2.9283 -1.9953,4.9099 10.22,-14.665 30.732,-17.061 62.191,-48.625 21.238,-21.313 21.625,-41.092 14.764,-45.727"
     fill="#e85377"
     id="path117" />
  <path
     d="m 127.771,30.8707 c -5.0728,-6.4573 -18.754,-6.6372 -30.963,9.1277 -13.379,17.282 -12.09,41.292 -1.8764,61.118 1.7204,3.3423 4.7641,9.4365 7.1257,14.489 -0.0577,-0.62809 -0.0981,-1.1808 -0.0866,-1.4726 0.50209,0.5598 1.8459,2.1513 2.321,2.908 -0.11158,-0.75698 -0.50594,-2.6298 -0.78391,-3.5222 0.59731,0.52902 1.4115,1.1877 2.6263,1.6695 -1.9274,-3.6613 -5.877,-10.889 -7.8926,-14.967 -11.486,-23.247 -9.138,-43.083 1.7509,-58.458 9.1718,-12.948 21.689,-13.99 25.812,-9.5484 1.1638,1.252 2.9521,-0.0962 1.968,-1.3437"
     fill="#e85377"
     id="path118" />
  <path
     d="m 121.526,123.757 c 7.1427,-19.494 29.599,-18.676 65.129,-54.329 21.974,-22.049 20.532,-41.048 14.913,-44.841 -5.765,-3.8988 -11.503,2.5347 -12.31,6.9832 -0.26451,1.4557 0.49535,1.7882 0.86855,0.55692 1.2453,-4.0855 6.403,-7.7331 9.8402,-4.7709 3.4,2.9249 7.387,17.512 -14.828,40.664 -26.854,27.987 -52.764,31.794 -64.481,48.747 -1.666,2.4125 -2.2667,2.0732 -0.72909,-0.42802 11.004,-17.886 37.074,-20.79 64.339,-49.205 20.542,-21.411 18.344,-36.124 14.988,-39.012 -2.9046,-2.5008 -7.3362,1.2385 -8.2387,4.194 -0.78006,2.5721 -3.1286,1.7408 -2.6467,-0.92338 0.94647,-5.195 7.4446,-11.985 13.793,-7.6958 7.2886,4.927 7.2547,24.682 -14.608,46.619 -34.183,34.298 -56.51,34.597 -65.363,53.847 -0.79064,1.7169 -1.3437,1.4455 -0.66464,-0.40686"
     fill="#0f141b"
     id="path119" />
  <path
     d="m 128.084,30.6193 c -5.3104,-6.7593 -19.45,-6.8917 -31.791,9.0429 -12.497,16.141 -13.183,39.775 -1.8798,61.719 4.1431,8.042 9.372,18.384 10.661,22.331 0.56365,1.7136 1.0248,1.605 0.70215,-0.12504 -0.5396,-2.9113 -8.3167,-18.829 -10.329,-22.738 -11.096,-21.537 -10.383,-44.702 1.8358,-60.48 11.459,-14.794 24.92,-15.88 30.152,-9.2194 0.61077,0.77717 -0.55692,1.6084 -1.2793,0.83104 -4.6079,-4.9575 -17.461,-3.5696 -26.64,9.389 -11.941,16.854 -12.606,37.206 -1.8459,58.984 1.1062,2.2327 5.8567,10.787 8.0182,14.808 2.4329,4.5231 2.9419,4.0854 0.73678,-0.25104 -2.209,-4.3365 -6.4776,-12.548 -7.6618,-14.947 -10.563,-21.37 -9.9523,-41.356 1.7237,-57.841 9.3991,-13.264 21.523,-13.447 25.086,-9.613 1.5745,1.6966 3.7868,-0.26836 2.511,-1.89"
     fill="#0f141b"
     id="path120" />
  <path
     d="m 126.195,56.791 c -1.4625,0.3732 -2.5246,1.0179 -3.1794,1.9274 -1.1334,1.5778 -1.1334,4.1668 0.10485,5.1203 0.42706,0.32895 1.0112,0.40686 1.2589,0.11542 0.2068,-0.24431 0.0962,-0.7262 -0.10196,-1.174 0.54249,0.0962 0.97388,0.15294 1.1571,-0.1664 0.12889,-0.22026 0.0385,-0.80411 -0.24816,-1.2114 0.52229,0.0981 0.8926,-0.0577 0.99754,-0.26451 0.15294,-0.29529 -0.007,-0.86566 -0.39051,-1.4421 0.65117,0.0192 1.0146,-0.10196 1.174,-0.39051 0.1462,-0.2549 -0.15967,-1.2895 -0.61463,-1.9918 l 0.3126,-0.62424 c 0,0 -0.15582,0.0192 -0.4713,0.10196"
     fill="#ffe100"
     id="path121" />
  <path
     d="m 122.697,58.477 c -1.2758,1.7747 -1.1367,4.5673 0.22699,5.6158 0.32607,0.25104 1.2894,0.45495 1.6592,0.0192 0.20391,-0.23757 0.15582,-0.75697 0.0481,-1.035 0.37994,0.0962 0.89934,0.0673 1.1096,-0.28856 0.14908,-0.25777 0.0289,-0.73004 -0.17987,-1.1434 0.37031,0.0385 0.80411,-0.12215 0.933,-0.37031 0.15966,-0.30875 0.007,-0.89548 -0.29144,-1.3946 0.43091,0.0481 0.9908,-0.11542 1.1265,-0.35973 0.1664,-0.29818 -0.0577,-1.1469 -0.57711,-1.9002 -0.36647,-0.5396 -0.58385,-0.36262 -0.31934,0.23758 0.18371,0.42033 0.41071,1.0552 0.27124,1.2996 -0.0866,0.14909 -0.19044,0.28855 -0.91664,0.26451 -0.32222,-0.0385 -0.37993,0.0866 -0.21065,0.37704 0.29144,0.49247 0.3934,1.001 0.30202,1.174 -0.0866,0.17314 -0.30875,0.25489 -0.69253,0.18275 -0.28182,-0.0577 -0.37031,0.10869 -0.227,0.32607 0.20392,0.30876 0.32896,0.77045 0.17602,0.9532 -0.20006,0.21738 -0.66464,0.15582 -0.95319,0.10484 -0.11831,-0.0192 -0.23758,0.0866 -0.17314,0.21353 0.14236,0.28471 0.30876,0.82431 0.15294,1.001 -0.0962,0.10196 -0.53576,0.0577 -0.85894,-0.19045 -1.0552,-0.81084 -0.99417,-3.2032 0.0481,-4.6453 0.76371,-1.0621 2.175,-1.7 4.1737,-1.9409 l 0.60692,-0.94357 c -2.6229,0.24046 -4.4349,1.0553 -5.4291,2.4397"
     fill="#0f141b"
     id="path122" />
  <path
     d="m 142.356,33.569 c -3.4102,-20.319 6.4742,-33.62 9.182,-33.209 1.8289,0.27509 3.3626,18.347 -2.6365,30.756 z"
     fill="#ffe100"
     id="path123" />
  <path
     d="m 148.901,31.1142 c 2.623,-5.4257 3.8072,-11.937 4.1533,-17.57 -1.2928,6.0602 -3.763,14.038 -5.8634,18.211 z"
     fill="#f9be00"
     id="path124" />
  <path
     d="m 165.132,33.2961 c 10.159,-15.408 29.741,-19.511 31.139,-17.115 1.1265,1.9341 -8.8392,15.052 -26.572,19.911 z"
     fill="#ffe100"
     id="path125" />
  <path
     d="m 168.642,35.4436 1.0587,0.64829 c 16.674,-4.5673 26.48,-16.44 26.65,-19.446 -6.1824,7.6924 -19.26,15.548 -27.709,18.798"
     fill="#f9be00"
     id="path126" />
  <path
     d="m 166.582,61.43 c 5.1678,-1.7985 8.8325,-5.2426 9.8573,-10.047 2.3447,-11.021 -4.7607,-20.746 -18.337,-22.745 -11.252,-1.6558 -22.392,3.5833 -23.834,14.886 -0.69253,5.4088 1.3402,10.811 6.3181,14.53 6.7254,4.625 16.379,6.0433 25.995,3.3763"
     fill="#ffe100"
     id="path127" />
  <path
     d="m 137.757,44.327 c 1.9613,-0.61751 4.1974,1.4828 5.0253,4.0582 0.75313,2.3413 0.2068,5.7243 -1.8968,6.3215 -1.8765,0.53575 -4.004,-1.2317 -4.9066,-4.0718 -0.77333,-2.4363 -0.3732,-5.6293 1.7781,-6.3079"
     fill="#ed1c24"
     id="path128"
     style="fill:#e50013;fill-opacity:1" />
  <path
     d="m 172.912,48.846 c 1.4421,0.7868 2.08,3.4406 0.34626,6.5216 -1.2045,2.1412 -4.255,3.8479 -5.9346,2.8673 -1.6628,-0.96704 -1.7476,-4.0176 -0.1664,-6.4369 1.8663,-2.8469 4.323,-3.7359 5.7549,-2.952"
     fill="#ed1c24"
     id="path129"
     style="fill:#e50013;fill-opacity:1" />
  <path
     d="m 151.539,0.359 c -1.7407,-0.26451 -6.4471,5.1509 -8.6798,14.445 2.83,-2.718 7.0172,-4.7098 10.309,-5.2018 -0.0192,-5.2968 -0.79738,-9.1175 -1.6287,-9.2431"
     fill="#0f141b"
     id="path130" />
  <path
     d="m 196.262,16.181 c -0.57711,-0.98744 -4.255,-0.86856 -9.087,0.69541 0.46842,3.3763 0.27124,7.6822 -1.4488,11.615 7.4515,-5.29 11.255,-11.079 10.536,-12.311"
     fill="#0f141b"
     id="path131" />
  <path
     d="m 149.884,54.136 c 0.73293,2.8062 2.1004,5.049 3.6884,5.1984 1.2216,0.11157 2.9826,-1.8561 4.3569,-4.2144 -1.7645,-2.908 -6.3385,-3.3626 -8.0453,-0.98407"
     fill="#ed1c24"
     id="path132"
     style="fill:#e50013;fill-opacity:1" />
  <path
     d="m 159.102,50.4 c -2.1546,-0.16255 -2.8842,-1.1164 -4.4315,-1.398 -1.6321,-0.29529 -3.0674,0.30202 -5.0117,0.01 -0.10869,-0.01 -0.21353,-0.0385 -0.31548,-0.0673 -0.0962,1.7204 0.1183,3.5493 0.54633,5.1882 1.7068,-2.3752 6.2808,-1.9205 8.0452,0.98744 0.91569,-1.5711 1.6593,-3.3084 1.9545,-4.7234 -0.227,0.0192 -0.48189,0.0192 -0.7868,0"
     fill="#b01419"
     id="path133"
     style="fill:#b60007;fill-opacity:1" />
  <path
     d="m 151.592,0.014 c -3.4102,-0.5194 -12.68,13.037 -9.8708,31.597 l 0.6579,-0.35974 c -2.0427,-18.982 6.9934,-30.851 9.1006,-30.549 1.415,0.52902 2.4329,16.861 -1.8765,27.912 l 0.79738,-0.12215 c 4.781,-11.628 3.4882,-28.13 1.191,-28.479"
     id="path134"
     style="fill:#0f141b" />
  <path
     d="m 134.763,43.605 c 0.85797,-6.7185 5.2798,-10.797 8.7002,-12.558 1.2013,-0.61751 1.1232,-0.99763 -0.16929,-0.51267 -3.3016,1.2385 -8.5509,5.4461 -9.5111,12.948 -0.67907,5.3205 1.2758,11.713 8.1911,15.843 1.588,0.94646 1.8459,0.49535 0.26836,-0.50209 -5.9177,-3.7428 -8.2115,-9.4908 -7.4786,-15.219"
     id="path135"
     style="fill:#0f141b" />
  <path
     d="m 171.922,34.7522 c -1.096,-0.98061 -1.51,-0.68869 -0.42706,0.35973 2.4974,2.416 5.972,7.7162 4.6182,15.364 l 0.8445,0.64444 c 1.588,-8.1606 -2.3006,-13.919 -5.0355,-16.369"
     id="path136"
     style="fill:#0f141b" />
  <path
     d="m 166.972,31.8357 c 1.1842,0.60405 1.4727,0.13274 0.29817,-0.56653 -5.273,-3.1489 -12.168,-4.2178 -18.069,-2.7926 -1.4421,0.34627 -1.415,0.8724 0.0289,0.61078 5.3477,-0.96368 12.049,-0.14621 17.74,2.7485"
     id="path137"
     style="fill:#0f141b" />
  <path
     d="m 196.572,16.006 c -1.6796,-2.8808 -19.938,1.1061 -30.216,14.978 l 0.64155,0.30587 c 10.604,-13.159 27.801,-16.936 28.975,-14.93 0.65502,1.1265 -7.2818,12.826 -23.993,18.68 l 0.54634,0.5598 c 16.745,-5.4529 25.222,-17.577 24.048,-19.592"
     id="path138"
     style="fill:#0f141b" />
  <path
     d="m 159.122,50.793 c -2.0631,-0.15582 -2.6501,-1.1096 -4.5164,-1.4489 -1.7135,-0.30875 -2.8774,0.38378 -5.0355,0.0577 -0.83489,-0.12215 -1.6016,-0.67233 -2.0087,-1.4727 -0.42418,-0.83777 -0.077,-1.0654 0.4713,-0.30491 0.40687,0.5598 1.0383,0.89549 1.6797,0.99081 1.8188,0.26835 3.1625,-0.29529 5.0186,0.0385 1.6796,0.30491 2.2632,1.1842 4.4043,1.3472 1.035,0.0769 1.5507,-0.0866 2.2124,-0.44822 1.13,-0.60789 1.3403,-0.28471 0.29144,0.45784 -0.7262,0.5194 -1.6016,0.84835 -2.5177,0.77718"
     id="path139"
     style="fill:#0f141b" />
  <path
     d="m 159.412,50.577 c -0.81757,3.4543 -4.1635,8.5238 -5.8228,8.3745 -1.8628,-0.17314 -4.0786,-4.3738 -3.8546,-9.7487 l -0.77718,-0.3049 c -0.25104,4.6792 1.8765,10.57 4.5842,10.824 2.6128,0.23373 6.1417,-6.3623 6.7356,-9.26 z"
     id="path140"
     style="fill:#0f141b" />
  <path
     d="m 149.885,53.58 0.2068,0.86182 c 1.4761,-2.2632 5.9822,-1.7577 7.5668,0.90607 l 0.41358,-0.64156 c -2.0427,-2.9588 -6.1891,-3.2778 -8.1878,-1.1265"
     id="path141"
     style="fill:#0f141b" />
  <path
     d="m 153.124,9.969 -0.0192,-0.73005 c -3.1829,0.43091 -7.0714,2.1546 -9.9116,4.669 l -0.30203,1.3402 c 2.7654,-2.7586 6.99,-4.7606 10.23,-5.2798"
     id="path142"
     style="fill:#0f141b" />
  <path
     d="m 187.532,16.8649 -0.67522,0.20391 c 0.3328,2.572 0.41071,7.1665 -1.6288,11.7 l 1.0756,-0.73005 c 1.7679,-4.1533 1.6424,-8.5815 1.2284,-11.174"
     id="path143"
     style="fill:#0f141b" />
  <path
     d="m 145.366,37.132 c 2.2768,0.22027 3.78,2.1173 3.495,4.4281 -0.25489,2.0766 -1.9749,3.6444 -4.4247,3.3152 -2.097,-0.28182 -3.5425,-2.2328 -3.1829,-4.513 0.27124,-1.7204 1.8969,-3.4441 4.1126,-3.2303"
     id="path144"
     style="fill:#0f141b" />
  <path
     d="m 145.941,37.834 c 0.92627,0.1462 1.4659,1.079 1.3166,1.9239 -0.18372,1.018 -1.0383,1.5371 -1.9443,1.3879 -0.69253,-0.11543 -1.4456,-0.87914 -1.2419,-1.9409 0.17986,-0.93973 1.0621,-1.4964 1.8696,-1.3708"
     fill="#ffffff"
     id="path145" />
  <path
     d="m 167.052,40.46 c 2.253,0.15294 3.4373,2.0156 3.4441,3.9735 0.007,2.1139 -1.8392,3.7223 -4.082,3.5628 -1.6525,-0.11831 -3.5833,-1.5236 -3.4475,-3.909 0.1183,-2.1682 1.7542,-3.7834 4.0854,-3.6273"
     fill="#0f141b"
     id="path146" />
  <path
     d="m 166.632,40.949 c 1.1536,0.0673 1.6084,1.0994 1.5405,1.9341 -0.0866,0.98744 -0.89933,1.5406 -1.7339,1.4693 -0.8926,-0.0769 -1.5948,-0.73967 -1.5303,-1.8154 0.0577,-1.035 0.90607,-1.6389 1.7237,-1.588"
     fill="#ffffff"
     id="path147" />
  <path
     d="m 154.307,46.203 c -0.0673,0.21354 0.42033,0.57327 0.58385,0.59058 0.19718,0.0192 0.72235,-0.20006 0.73293,-0.40398 0.007,-0.20391 -1.2724,-0.33568 -1.3166,-0.1866"
     fill="#0f141b"
     id="path148" />
  <path
     d="m 162.912,61.325 c 2.321,-2.5924 10.499,-7.9978 11.839,-8.5475 0.10196,-0.64156 0.73293,-2.243 1.0858,-2.3074 0.353,-0.0577 0.95031,0.67137 1.1232,0.63482 0.22411,-0.0481 1.3606,-1.2928 1.8392,-1.0621 0.33953,0.16256 0.0577,1.7136 0.21353,1.8425 0.16256,0.12504 1.7509,-0.126 1.968,0.12504 0.25778,0.29817 -0.22411,1.4863 -0.0673,1.6525 0.15293,0.16929 1.4625,0.47516 1.4998,0.84451 0.0481,0.48189 -0.93012,1.1639 -0.92338,1.3302 0.007,0.16928 0.61751,0.74639 0.44149,1.0858 -0.17602,0.33569 -1.2826,0.45496 -1.588,0.44149 -1.3302,2.9215 -7.2004,11.439 -11.276,14.703 -5.7888,4.6351 -11.099,-5.2222 -6.1519,-10.743"
     fill="#ffe100"
     id="path149" />
  <path
     d="m 169.062,72.067 c 4.0753,-3.2643 9.9488,-11.781 11.276,-14.703 0.30587,0.0192 1.4116,-0.10485 1.588,-0.44149 0.0192,-0.0385 0.0385,-0.11831 0.0385,-0.15967 -0.78391,-0.01 -1.5778,-0.11542 -2.0122,-0.17602 -0.20006,-0.0289 -0.34626,0.0866 -0.4511,0.29144 -1.4862,2.9249 -6.3826,9.4093 -8.7273,11.791 -1.0621,1.0791 -2.4838,2.7282 -2.7417,4.0753 0.33953,-0.17987 0.6858,-0.40013 1.0315,-0.67907"
     fill="#f9be00"
     id="path150" />
  <path
     d="m 168.742,71.955 c 3.831,-3.288 9.7622,-11.662 11.276,-14.737 0.077,-0.15967 0.12504,-0.20007 0.33569,-0.20392 0.31549,0.0192 1.1672,-0.12215 1.2114,-0.2645 0.0481,-0.14236 -0.42803,-0.73582 -0.43091,-0.89549 0,-0.15582 0.85508,-1.1197 0.82815,-1.2826 -0.0288,-0.16255 -1.2691,-0.60789 -1.3437,-0.72235 -0.0769,-0.11542 0.0962,-1.4557 -0.0288,-1.5676 -0.16255,-0.15293 -1.7204,-0.0385 -1.7984,-0.12215 -0.077,-0.0866 -0.13273,-1.6423 -0.30587,-1.7169 -0.16928,-0.0673 -1.32,0.98734 -1.4557,1.0044 -0.13947,0.01 -0.933,-0.58385 -1.1029,-0.53576 -0.19334,0.0577 -0.7464,1.3539 -0.83489,1.9239 -0.0192,0.15294 -0.0385,0.19718 -0.21353,0.26836 -1.4353,0.58673 -9.3211,6.05 -11.893,8.4864 -0.8522,0.80411 -1.0654,0.61367 -0.35588,-0.31933 2.2564,-2.9453 9.959,-7.8383 11.815,-8.7375 0.15967,-0.62809 0.70889,-2.3583 1.3233,-2.4872 0.40398,-0.0866 1.1164,0.62808 1.1673,0.66464 0.18371,-0.14236 1.3912,-1.2758 2.0122,-0.98061 0.40398,0.19333 0.35589,1.7373 0.35589,1.8425 0.12889,0 1.7135,-0.0481 1.9375,0.21065 0.25489,0.29817 0,1.571 -0.01,1.6728 0.077,0.0289 1.5202,0.57711 1.5643,1.0281 0.0481,0.46842 -0.86567,1.3369 -0.90607,1.381 0.0673,0.0962 0.48863,0.94647 0.34627,1.2216 -0.15967,0.30202 -1.0383,0.57326 -1.6728,0.61751 -1.6491,3.5018 -7.1223,11.71 -11.455,14.689 -1.1775,0.80796 -1.5338,0.56653 -0.36358,-0.43764"
     fill="#0f141b"
     id="path151" />
  <path
     d="m 164.832,169.395 c 18.442,34.689 44.8,52.72 69.388,65.587 6.1688,3.2269 20.861,12.752 30.21,23.345 1.2114,-2.4771 0.64155,-11.717 -0.39052,-16.437 6.9222,1.6932 15.045,4.099 19.769,5.6565 0.0481,-3.6273 -2.7553,-12.765 -5.4394,-18.69 4.2517,0.10485 9.4501,0.35589 11.296,0.55692 -4.3705,-7.0918 -13.641,-14.917 -21.808,-19.314 -26.959,-14.513 -67.063,-20.434 -88.199,-47.695 z"
     fill="#e85377"
     id="path152" />
  <path
     d="m 289.522,229.195 c -5.5581,-3.1319 -12.327,-5.4122 -14.35,-5.8091 l 3.1998,5.4766 c 4.2517,0.10196 9.4501,0.35589 11.296,0.55691 -0.0481,-0.0769 -0.0981,-0.14908 -0.1462,-0.22411"
     id="path153"
     style="fill:#c94768" />
  <path
     d="m 164.502,168.765 c 18.456,35.099 44.987,53.267 69.717,66.212 6.1722,3.2304 20.865,12.755 30.21,23.345 0.0981,-0.19718 0.18275,-0.44437 0.25777,-0.7262 -4.4214,-11.262 -16.983,-22.507 -34.885,-32.001 -33.959,-18.008 -51.794,-37.257 -62.55,-58.136 z"
     id="path154"
     style="fill:#c94768" />
  <path
     d="m 283.782,246.775 c -7.2105,-4.9202 -17.621,-7.4854 -20.648,-7.9571 l 0.84163,2.8062 0.21737,0.30587 c 6.8882,1.6899 14.927,4.0719 19.616,5.6191 0.003,-0.23373 -0.007,-0.49535 -0.0288,-0.77332"
     id="path155"
     style="fill:#c94768" />
  <path
     d="m 172.852,152.995 c 18.897,36.714 64.99,42.093 94.538,57.997 8.2184,4.4247 16.118,10.95 20.42,17.329 -2.3991,-0.17602 -5.7956,-0.48477 -9.5892,-0.48477 l 0.90895,1.7305 c 4.099,0.12215 8.8733,0.42033 11.17,0.66849 0.6204,0.0673 0.85124,-0.35589 0.52614,-0.88587 -4.1635,-6.7524 -13.763,-15.605 -22.572,-20.349 -29.263,-15.748 -76.347,-22.032 -94.175,-56.677 z"
     id="path156"
     style="fill:#0f141b" />
  <path
     d="m 276.632,224.405 c -1.7271,-2.3141 -2.494,-1.8594 -0.93684,0.57038 2.6942,4.2042 6.6473,15.996 7.0443,21.174 -4.4791,-1.4488 -11.73,-3.6036 -18.771,-5.2425 l 0.50594,1.9851 c 7.1088,1.7542 15.534,4.6996 19.718,6.0704 0.50209,0.16255 0.74351,0.0385 0.76371,-0.54248 0.17987,-4.859 -5.1576,-19.772 -8.3235,-24.014"
     id="path157"
     style="fill:#0f141b" />
  <path
     d="m 163.012,167.895 c 19.192,37.383 47.864,56.188 70.691,68.136 6.8678,3.5934 21.605,13.631 30.559,23.769 0.39051,0.44438 0.79737,0.46169 1.0315,-0.01 1.3878,-2.8367 0.75024,-14.978 -1.1232,-19.338 -1.0146,-2.365 -1.5439,-2.0766 -1.0044,0.32222 0.90607,4.0108 1.4115,11.622 0.73967,15.466 -9.0802,-9.9726 -22.48,-18.829 -29.249,-22.375 -22.673,-11.866 -50.973,-29.792 -70.015,-66.883 z"
     id="path158"
     style="fill:#0f141b" />
</svg>
